<?xml version="1.0" standalone="no"?>
<!DOCTYPE svg PUBLIC "-//W3C//DTD SVG 20010904//EN"
 "http://www.w3.org/TR/2001/REC-SVG-20010904/DTD/svg10.dtd">
<svg version="1.0" xmlns="http://www.w3.org/2000/svg"
 width="900.000000pt" height="900.000000pt" viewBox="0 0 900.000000 900.000000"
 preserveAspectRatio="xMidYMid meet">
<metadata>
Created by potrace 1.14, written by Peter Selinger 2001-2017
</metadata>
<g transform="translate(0.000000,900.000000) scale(0.100000,-0.100000)"
fill="#000000" stroke="none">
<path d="M7856 7363 c-4 -5 -12 -9 -17 -9 -5 -1 -11 -2 -14 -3 -3 0 1 -11 10
-24 12 -18 15 -63 16 -212 2 -171 0 -197 -20 -260 -67 -211 -129 -341 -179
-372 -15 -10 -52 -38 -83 -64 -60 -49 -219 -149 -237 -149 -6 0 -15 -6 -19
-12 -23 -37 -152 -110 -203 -115 -19 -2 -87 -21 -150 -42 -132 -44 -212 -68
-255 -76 l-30 -7 25 22 c21 18 22 21 5 15 -16 -5 -18 -4 -7 6 6 7 12 19 12 26
0 13 45 77 111 157 19 24 57 81 84 127 26 46 58 100 71 119 12 19 32 71 44
115 20 77 29 213 15 235 -13 21 -24 -1 -31 -60 -4 -34 -12 -60 -18 -60 -6 0
-4 -5 4 -10 9 -6 10 -10 3 -10 -6 0 -11 -13 -11 -30 1 -19 -6 -37 -18 -46 -10
-9 -12 -13 -4 -9 10 4 9 2 -2 -8 -10 -8 -15 -16 -12 -20 8 -8 -83 -177 -130
-240 -49 -65 -103 -125 -137 -150 -63 -47 -84 -64 -104 -82 -43 -41 -101 -82
-140 -99 -22 -10 -52 -24 -67 -32 -14 -8 -33 -14 -42 -14 -15 0 -15 3 -1 30
15 29 15 30 -9 30 -13 0 -37 -11 -53 -24 -33 -28 -135 -86 -150 -86 -6 0 0 22
13 50 13 27 24 59 24 71 0 11 5 30 11 41 21 39 -9 9 -45 -45 -45 -68 -84 -103
-120 -110 -45 -8 -57 11 -36 53 29 59 12 69 -31 19 -20 -24 -41 -41 -45 -37
-4 5 0 16 9 26 10 10 17 26 17 35 0 31 -29 17 -60 -29 -31 -44 -33 -45 -55
-30 -22 15 -26 13 -81 -29 -70 -54 -94 -59 -67 -14 10 17 27 40 37 51 19 20
19 20 -5 13 -13 -4 -29 -12 -36 -17 -7 -5 -12 -5 -15 3 -2 7 -17 -1 -38 -19
-24 -22 -37 -28 -46 -21 -9 7 -18 1 -32 -23 -12 -18 -32 -44 -46 -57 l-24 -23
-12 22 c-7 12 -18 19 -26 16 -8 -3 -14 -1 -14 4 0 17 -20 11 -26 -7 -22 -67
-74 -117 -103 -99 -5 4 -12 -2 -15 -11 -3 -10 -14 -23 -25 -30 -16 -10 -18 -9
-14 8 3 11 9 22 14 25 14 8 11 44 -4 44 -7 0 -18 -9 -25 -20 -7 -12 -18 -17
-27 -13 -9 3 -21 -1 -28 -9 -9 -12 -20 -13 -46 -6 -18 5 -31 12 -27 15 3 3 1
14 -5 25 -9 17 -8 19 10 13 18 -6 19 -3 10 27 -14 49 -12 51 32 44 l42 -7 -52
41 c-57 45 -63 60 -26 60 22 0 25 5 25 33 0 44 7 52 70 78 59 24 180 32 293
19 31 -3 62 -3 67 0 15 9 -28 87 -62 114 -85 68 -102 76 -203 100 -38 9 -87
21 -108 27 -21 6 -58 7 -83 3 -39 -6 -47 -4 -60 14 -8 11 -31 26 -51 33 -49
16 -191 6 -268 -20 -32 -11 -63 -17 -67 -15 -4 3 -8 1 -8 -5 0 -5 -27 -27 -59
-48 -59 -38 -108 -94 -97 -111 3 -5 -6 -14 -19 -20 -34 -16 -32 -34 3 -26 l27
6 -23 -17 c-13 -9 -21 -23 -18 -31 3 -8 -3 -20 -14 -26 -11 -7 -20 -17 -20
-21 0 -5 -11 -22 -25 -39 -28 -33 -34 -58 -10 -38 12 10 15 10 15 0 0 -7 -11
-21 -25 -32 -14 -11 -25 -25 -25 -33 0 -7 -13 -18 -30 -24 -23 -7 -30 -16 -30
-35 0 -15 -4 -26 -10 -26 -5 0 -7 -7 -4 -15 5 -12 -3 -15 -36 -15 -44 0 -54
-22 -12 -28 12 -2 20 -8 17 -13 -9 -13 -52 -11 -59 4 -3 9 -9 7 -19 -5 -8 -10
-23 -18 -33 -18 -18 -1 -18 -1 0 -15 11 -8 15 -15 9 -15 -5 0 -18 9 -28 20
-19 21 -50 26 -60 10 -3 -6 -17 0 -31 13 -53 49 -142 58 -103 11 13 -16 12
-16 -11 -4 -14 7 -39 23 -57 36 -38 29 -58 31 -48 7 8 -22 13 -41 8 -31 -2 4
-10 5 -17 2 -18 -7 -32 13 -46 64 -6 26 -16 42 -23 39 -7 -2 -16 9 -22 24 -11
32 -29 38 -31 11 -1 -9 -2 -21 -3 -26 -1 -5 -10 -1 -21 9 -19 18 -20 17 -20
-7 0 -32 -8 -40 -31 -28 -19 11 -37 -4 -19 -15 5 -3 14 -14 20 -25 8 -15 7
-17 -13 -13 -12 3 -29 11 -37 18 -8 7 -23 15 -33 19 -10 3 -24 20 -30 36 -14
37 -37 39 -37 5 0 -23 -2 -25 -22 -14 -13 6 -37 28 -55 48 -31 34 -44 30 -24
-8 8 -15 5 -17 -26 -17 -30 0 -39 6 -65 44 -16 24 -32 41 -36 38 -3 -3 1 -14
10 -23 8 -10 22 -31 32 -48 13 -22 7 -19 -23 15 -23 26 -44 60 -48 80 -6 33
-7 34 -13 10 -7 -28 7 -76 39 -134 l22 -39 -93 7 c-128 9 -165 21 -227 72 -29
24 -57 44 -62 44 -16 0 -10 -18 17 -49 l25 -30 -78 41 c-43 23 -93 52 -112 64
-19 13 -39 20 -44 17 -6 -3 -7 -2 -4 4 4 5 -5 20 -18 31 -14 12 -25 28 -25 34
-1 18 -39 62 -47 54 -3 -3 -1 -17 5 -31 13 -29 16 -66 4 -50 -4 6 -29 22 -57
35 -94 47 -325 301 -325 359 0 6 -9 20 -19 30 -22 22 -49 103 -58 174 -3 26
-10 47 -15 47 -5 0 -8 6 -7 13 3 26 -1 47 -10 47 -11 0 -2 -153 10 -160 10 -7
29 -57 29 -78 0 -15 -2 -15 -11 -2 -8 11 -9 9 -3 -10 4 -14 13 -29 20 -35 8
-5 16 -27 19 -49 2 -21 8 -43 13 -50 5 -6 17 -35 27 -64 9 -28 20 -50 25 -47
5 3 12 0 16 -6 4 -8 3 -9 -4 -5 -28 17 -7 -9 60 -76 40 -39 68 -73 62 -75 -11
-4 -68 19 -95 39 -21 15 -49 3 -56 -22 -7 -25 -20 -25 -82 -1 -28 10 -52 17
-54 14 -5 -4 -44 14 -290 131 -54 26 -117 50 -140 55 -46 8 -176 96 -177 119
0 6 -4 12 -9 12 -7 0 -118 108 -200 195 -30 32 -73 127 -85 191 -2 10 -14 48
-26 84 -29 85 -39 125 -45 180 -3 25 -7 62 -10 83 -3 21 -1 56 5 78 6 22 7 45
3 52 -4 6 -8 17 -8 22 0 6 -7 10 -15 10 -19 0 -40 -173 -29 -242 4 -26 8 -79
9 -118 0 -79 31 -256 55 -327 16 -44 57 -88 83 -88 6 0 34 -26 64 -58 29 -32
44 -46 33 -32 -17 22 -16 21 13 -4 23 -22 29 -32 20 -38 -12 -7 -3 -12 16 -9
4 1 27 -15 50 -36 22 -21 83 -67 133 -102 51 -35 91 -67 88 -71 -3 -4 5 -11
18 -15 13 -4 17 -8 10 -12 -15 -6 -17 -33 -3 -33 6 0 15 -11 20 -25 6 -15 20
-27 37 -31 33 -8 103 -42 103 -50 0 -3 -8 -13 -17 -22 -12 -13 -17 -14 -21 -4
-3 10 -7 10 -19 0 -12 -10 -18 -9 -29 6 -7 10 -19 16 -27 13 -18 -7 -176 42
-239 74 -10 5 -24 9 -32 9 -19 0 -158 73 -229 121 -33 21 -62 39 -65 39 -18 0
-311 215 -427 313 -33 28 -92 82 -132 120 -39 38 -76 66 -82 62 -14 -8 -14
-42 -2 -50 13 -7 71 -94 71 -105 0 -4 3 -10 8 -12 15 -6 120 -145 184 -243
111 -168 171 -219 274 -229 46 -4 80 -18 270 -107 33 -15 81 -33 107 -39 40
-11 45 -15 44 -38 -2 -23 3 -27 38 -35 132 -27 158 -30 189 -19 17 6 40 9 51
7 11 -2 28 -4 39 -4 14 -1 16 -4 7 -15 -9 -11 8 -14 97 -19 103 -6 212 -29
212 -46 0 -4 -17 -7 -37 -5 -21 2 -112 5 -203 8 -91 3 -183 10 -205 15 -55 13
-106 20 -185 27 -65 5 -185 36 -176 45 2 2 -20 5 -49 6 -45 1 -135 31 -97 33
7 0 10 4 7 10 -3 5 -27 7 -53 5 -26 -3 -41 -3 -34 1 25 12 11 23 -24 19 -22
-3 -33 -1 -29 5 3 6 -1 7 -10 4 -22 -9 -107 25 -99 38 4 7 2 8 -4 4 -7 -4 -18
-4 -25 1 -6 4 -17 8 -22 9 -6 1 -34 16 -62 33 -27 17 -55 31 -62 31 -6 0 -11
4 -11 9 0 5 -10 12 -22 16 -104 29 -385 200 -496 303 -14 12 -33 22 -43 22
-42 0 -12 -39 96 -126 52 -41 95 -79 95 -85 0 -6 5 -7 12 -3 7 4 8 3 4 -4 -12
-19 -24 -14 -69 27 -23 21 -47 36 -53 34 -7 -2 -30 15 -52 37 -23 24 -43 37
-47 31 -6 -11 23 -43 70 -76 16 -11 43 -32 60 -46 41 -34 144 -102 178 -117
15 -6 26 -17 25 -24 -2 -8 6 -12 20 -10 24 2 75 -21 263 -121 59 -32 150 -73
203 -92 53 -19 118 -46 144 -60 l47 -26 -46 4 c-26 2 -53 1 -60 -3 -8 -4 -38
-4 -66 -1 -29 4 -53 4 -53 0 0 -4 21 -10 48 -14 26 -4 64 -15 85 -25 20 -10
56 -21 80 -25 23 -4 69 -14 102 -22 33 -9 67 -17 75 -18 8 -1 33 -7 55 -12
162 -42 255 -54 255 -33 0 5 -8 9 -17 7 -35 -4 -27 18 14 41 56 31 73 22 69
-34 -3 -45 11 -61 21 -23 5 18 11 20 42 15 20 -3 42 -6 49 -6 6 0 12 -7 12
-15 0 -9 6 -12 15 -9 8 4 21 2 28 -3 19 -15 56 -22 63 -12 3 5 10 9 15 9 6 0
7 -4 4 -10 -4 -7 3 -7 20 0 15 6 56 7 98 3 71 -7 71 -7 32 -16 -68 -14 -478
-18 -487 -4 -6 9 -10 8 -17 -3 -19 -29 -292 -29 -506 0 -107 14 -153 20 -195
26 -19 2 -78 13 -130 24 -52 11 -110 22 -127 24 -60 7 -34 -11 47 -34 139 -40
109 -37 -240 21 -69 12 -134 23 -145 26 -11 3 -36 8 -55 13 -19 4 -47 11 -62
15 -30 8 -35 -1 -16 -28 13 -16 98 -54 188 -83 69 -22 269 -65 325 -70 28 -3
59 -7 70 -9 11 -2 42 -4 69 -4 66 -1 53 -10 -25 -18 -82 -7 -109 -18 -109 -42
0 -13 9 -20 28 -24 15 -3 38 -8 52 -12 65 -17 262 -34 605 -52 l90 -4 40 35
c63 55 63 56 76 56 17 0 38 -31 39 -57 0 -12 4 -24 9 -27 11 -7 73 14 86 30
16 20 55 28 55 11 0 -19 63 -49 84 -41 9 3 16 1 16 -5 0 -6 -3 -10 -7 -9 -5 1
-19 -2 -33 -5 -14 -4 -38 -9 -55 -11 -16 -2 -30 -5 -30 -6 0 -3 -7 -3 -95 -14
-25 -3 -85 -14 -135 -25 -49 -10 -130 -22 -180 -25 -215 -14 -386 -26 -465
-33 -47 -5 -204 -8 -350 -8 -204 0 -268 -3 -279 -13 -7 -7 -12 -15 -10 -17 6
-5 150 -19 179 -17 14 1 94 -8 178 -20 110 -15 152 -25 152 -35 0 -7 5 -13 10
-13 6 0 10 7 10 16 0 13 9 15 58 9 95 -10 501 -8 577 4 112 17 195 13 195 -9
0 -10 -124 -37 -210 -46 -36 -4 -77 -13 -92 -20 -15 -8 -54 -16 -85 -19 -32
-3 -85 -9 -118 -15 -77 -13 -134 -18 -270 -25 -133 -8 -198 -27 -193 -59 3
-19 9 -21 78 -22 41 0 122 3 180 7 58 4 186 13 285 19 99 6 203 13 230 15 l50
4 -75 -24 c-111 -37 -104 -33 -90 -50 10 -12 31 -14 109 -10 207 12 275 14
264 9 -24 -10 -13 -24 17 -24 28 0 44 19 18 21 -7 0 -4 4 7 9 11 5 49 9 85 9
63 1 66 2 89 37 42 61 92 67 136 16 l22 -26 51 37 c28 20 79 45 112 56 42 14
74 33 99 59 40 41 130 78 143 59 5 -8 13 -6 25 5 24 21 90 41 110 34 8 -4 21
-2 28 4 9 7 16 6 24 -4 9 -11 3 -16 -34 -26 -25 -7 -48 -17 -51 -21 -3 -5 -21
-9 -40 -9 -19 0 -34 -4 -34 -10 0 -5 -12 -13 -27 -16 -16 -4 -53 -19 -83 -35
-160 -81 -396 -190 -428 -198 -48 -12 -121 -32 -257 -71 -60 -17 -141 -38
-180 -47 -38 -8 -71 -16 -72 -17 -1 -1 2 -8 6 -15 7 -10 16 -11 42 -3 32 10
63 14 244 28 39 3 81 7 95 10 19 4 22 2 10 -6 -8 -5 -10 -10 -5 -10 6 0 1 -7
-9 -15 -11 -8 -17 -17 -14 -21 4 -3 35 13 70 37 49 33 75 43 116 47 42 4 52 8
52 23 0 12 -9 19 -27 21 -26 3 -24 5 22 27 28 13 60 25 72 26 47 6 89 18 117
32 15 8 25 10 22 4 -4 -6 0 -11 9 -11 11 0 15 5 12 14 -4 9 10 21 41 34 26 12
49 17 50 11 2 -5 8 -9 14 -9 6 0 8 7 4 15 -7 19 33 43 44 25 5 -9 9 -9 14 -1
4 6 2 11 -5 11 -24 0 5 18 93 58 72 33 90 38 104 28 15 -11 11 -16 -29 -39
-25 -15 -53 -27 -61 -27 -9 0 -16 -3 -16 -8 0 -4 -8 -12 -19 -17 -10 -6 -37
-20 -60 -33 -22 -12 -41 -18 -41 -13 0 9 -22 -9 -100 -83 -19 -18 -48 -36 -65
-39 -31 -5 -117 -35 -124 -43 -3 -3 -6 -21 -6 -42 -2 -29 -7 -40 -26 -48 -144
-67 -155 -74 -139 -84 7 -4 -25 -37 -79 -81 -105 -84 -119 -115 -48 -104 23 4
67 18 97 32 122 56 320 155 408 203 85 47 92 49 92 29 0 -15 4 -19 16 -15 9 3
18 6 20 6 2 0 4 9 4 20 0 11 -5 20 -12 20 -7 0 23 21 67 46 113 65 183 113
233 155 33 29 53 38 88 41 l46 3 -42 -37 c-23 -21 -74 -60 -114 -88 -39 -27
-104 -72 -143 -100 -40 -27 -78 -49 -85 -48 -7 2 -12 -2 -13 -9 0 -7 -20 -27
-45 -44 -170 -121 -220 -164 -220 -186 0 -22 23 -32 34 -14 3 4 22 11 42 14
20 4 63 25 95 47 33 23 63 38 69 35 5 -3 10 0 10 7 1 16 16 27 157 112 109 65
132 82 96 69 -31 -10 23 26 69 47 86 39 107 19 26 -25 -29 -15 -81 -56 -114
-89 -34 -34 -76 -71 -93 -84 -17 -13 -31 -28 -31 -33 0 -15 39 -10 58 9 10 9
31 26 47 37 15 11 42 32 58 48 59 53 43 27 -29 -50 -12 -13 -24 -39 -27 -59
-4 -26 -27 -59 -83 -122 -131 -148 -271 -292 -284 -292 -6 0 -10 -6 -7 -12 6
-21 65 -9 95 20 89 86 275 257 294 270 39 27 161 134 203 177 185 194 247 255
256 255 6 0 19 10 30 23 l19 22 -11 -27 c-6 -15 -9 -34 -5 -43 5 -15 9 -15 24
-4 9 7 4 0 -11 -17 -23 -24 -29 -27 -37 -14 -8 12 -10 10 -10 -10 0 -15 -13
-38 -33 -57 -17 -17 -41 -49 -52 -70 -11 -21 -47 -74 -81 -118 -99 -129 -120
-165 -104 -175 8 -5 18 -6 22 -4 4 3 8 1 8 -4 0 -5 -24 -32 -52 -59 -90 -83
-168 -173 -168 -193 0 -46 52 -43 144 9 60 35 66 36 66 19 0 -19 -112 -199
-127 -205 -7 -3 -13 -10 -13 -16 0 -5 -22 -44 -49 -86 -73 -115 -81 -134 -72
-167 10 -35 4 -54 -16 -54 -9 0 -13 -8 -11 -22 5 -39 41 -30 49 12 4 19 16 53
27 75 71 149 121 245 143 280 15 22 41 68 58 102 43 84 173 241 194 235 4 -1
12 9 17 23 14 37 43 77 146 200 106 126 140 169 180 227 21 32 43 58 47 58 5
0 5 -4 2 -10 -3 -5 -2 -10 3 -10 18 0 21 13 7 27 -20 19 -20 39 0 23 14 -11
19 -7 16 13 -2 11 17 9 24 -3 12 -20 25 -9 25 22 0 25 -3 29 -12 20 -7 -7 -14
-12 -18 -12 -8 0 -5 128 3 136 10 10 59 -14 75 -37 20 -28 31 -24 80 29 37 40
41 42 25 15 -9 -18 -21 -33 -25 -33 -4 0 -8 -7 -8 -15 0 -8 -4 -15 -8 -15 -4
0 -9 -12 -10 -26 -3 -34 -12 -50 -22 -34 -4 7 -10 -1 -14 -22 -6 -25 -9 -29
-15 -15 -6 16 -7 16 -21 0 -8 -10 -15 -27 -15 -37 0 -12 -13 -25 -32 -35 -39
-19 -40 -25 -9 -56 18 -18 21 -27 12 -34 -14 -12 -67 -35 -82 -36 -6 0 -19 -7
-29 -15 -9 -8 -27 -19 -39 -25 -11 -7 -20 -17 -18 -25 2 -7 -4 -20 -13 -30 -8
-9 -12 -19 -9 -22 8 -8 -7 -34 -71 -124 -48 -67 -107 -176 -135 -250 -8 -21
-5 -26 21 -40 17 -9 40 -14 50 -11 12 3 17 1 13 -5 -5 -7 2 -9 20 -6 14 3 26
1 26 -5 0 -17 -41 -77 -49 -72 -19 11 -45 -24 -47 -64 -1 -29 -15 -64 -45
-114 -34 -55 -75 -146 -79 -174 0 -1 14 3 30 8 17 6 30 15 30 19 0 5 11 22 25
38 13 16 22 32 18 35 -7 7 28 88 99 231 61 122 105 189 120 180 7 -5 9 -2 5 9
-9 24 24 79 102 171 67 79 85 106 60 90 -6 -4 17 32 52 78 35 47 65 82 67 77
2 -4 -16 -34 -39 -65 -24 -31 -44 -63 -45 -71 -1 -8 -13 -28 -26 -46 -24 -31
-58 -98 -58 -112 0 -4 8 -1 17 6 19 16 20 20 -17 -68 -19 -43 -20 -56 -10 -68
10 -12 16 -13 26 -4 18 15 17 -1 -1 -25 -8 -11 -15 -28 -15 -37 0 -10 -18 -44
-40 -75 -40 -57 -51 -94 -27 -94 27 0 42 22 118 167 28 54 65 115 82 137 18
22 26 36 19 32 -19 -12 -2 21 54 102 24 35 44 65 44 68 0 3 9 17 20 31 11 14
20 21 20 15 0 -6 -5 -14 -10 -17 -5 -3 -10 -14 -10 -23 0 -9 -21 -57 -46 -107
-26 -49 -57 -111 -70 -138 -14 -27 -31 -47 -40 -47 -11 0 -14 -5 -10 -16 3 -9
-5 -29 -18 -47 -24 -32 -29 -47 -27 -79 1 -23 20 -23 28 0 4 9 29 49 55 88 26
39 48 76 48 83 0 7 6 11 14 8 8 -3 23 5 35 17 27 28 28 45 1 21 -11 -10 -22
-16 -24 -14 -6 6 81 150 91 149 4 0 9 9 9 20 2 27 118 166 135 162 8 -2 11 0
7 4 -4 4 6 24 23 46 36 45 48 44 24 -3 -25 -47 -71 -109 -78 -103 -8 8 -32
-38 -29 -56 1 -8 -25 -53 -57 -100 -33 -47 -77 -116 -97 -154 -20 -39 -48 -88
-62 -110 -27 -42 -55 -116 -47 -125 7 -6 63 58 71 81 3 11 15 18 30 18 15 0
23 4 19 10 -4 6 -11 8 -16 5 -5 -3 -6 1 -3 9 3 9 10 16 15 16 5 0 9 6 9 13 0
7 15 31 33 53 33 41 91 126 123 181 10 18 21 30 25 27 10 -6 1 -68 -19 -126
-15 -45 -15 -49 2 -67 10 -11 27 -23 36 -26 10 -3 23 -19 30 -36 15 -35 23
-41 43 -33 11 4 14 15 10 38 -3 22 0 38 10 48 9 9 14 18 10 21 -7 8 28 100 43
113 8 6 20 27 28 46 8 19 22 41 31 48 15 13 17 11 14 -10 -2 -14 0 -31 4 -37
5 -9 3 -11 -6 -7 -8 3 -17 -2 -21 -12 -5 -13 -2 -15 18 -12 19 4 26 0 30 -18
3 -12 3 -31 0 -41 -5 -15 -4 -15 5 -3 9 12 11 11 11 -7 0 -13 4 -23 9 -23 19
0 33 -57 22 -96 -9 -36 -7 -101 4 -112 7 -7 -24 -63 -61 -109 -19 -23 -34 -50
-34 -61 0 -11 -17 -38 -37 -61 -40 -45 -123 -84 -176 -82 -18 0 -27 -4 -25
-11 4 -11 -54 -60 -143 -123 -27 -19 -53 -67 -43 -78 14 -13 46 10 69 48 14
25 50 61 87 88 60 42 134 75 144 64 3 -3 -8 -8 -25 -12 -16 -3 -50 -25 -76
-47 -72 -64 -92 -118 -58 -158 21 -24 36 -25 53 -5 7 8 29 20 49 26 30 9 44 8
76 -5 30 -13 36 -19 25 -26 -11 -7 -11 -12 -2 -23 14 -17 8 -24 -37 -43 -41
-17 -61 -18 -61 -1 0 26 17 39 36 29 48 -24 59 16 13 49 -30 21 -31 21 -25 2
5 -16 0 -24 -28 -37 -19 -9 -48 -16 -65 -16 -21 0 -31 -5 -31 -15 0 -8 -7 -15
-16 -15 -8 0 -13 -4 -10 -9 7 -10 -19 -34 -40 -37 -19 -3 -18 32 1 40 21 8 19
36 -3 36 -10 0 -28 -7 -41 -17 -23 -15 -23 -17 -6 -30 18 -12 18 -14 -3 -36
-25 -26 -20 -37 15 -37 18 0 24 -5 21 -17 -2 -13 -14 -19 -41 -21 -25 -2 -37
-8 -37 -18 0 -12 7 -14 31 -9 26 6 30 4 27 -12 -2 -12 -11 -17 -26 -15 -32 5
-27 -13 13 -45 24 -19 33 -33 29 -45 -9 -29 3 -37 36 -25 29 11 41 27 20 27
-5 0 -10 8 -10 19 0 29 57 37 78 11 23 -27 49 -12 33 18 -9 17 -5 29 25 74 20
29 40 54 44 56 12 4 50 -30 50 -44 0 -6 -7 -17 -15 -24 -12 -10 -18 -10 -30 0
-8 7 -15 9 -15 4 0 -5 -4 -2 -10 6 -7 12 -10 12 -16 -4 -5 -13 -1 -24 14 -35
l22 -16 -45 -55 c-25 -30 -45 -58 -45 -62 0 -5 -9 -8 -20 -8 -13 0 -18 -5 -14
-15 5 -11 -1 -15 -21 -15 -23 0 -25 3 -16 14 17 20 -3 30 -29 14 -22 -14 -19
-42 7 -68 14 -13 15 -13 10 3 -5 14 -1 17 24 17 31 0 32 -3 12 -55 -2 -6 3
-19 11 -30 14 -19 16 -18 35 25 11 25 21 55 21 66 0 26 39 78 40 53 0 -25 36
-53 57 -44 16 7 15 9 -7 14 -14 4 -25 12 -24 19 1 7 2 23 3 36 1 30 38 77 55
70 9 -3 11 -20 8 -53 -2 -27 1 -59 8 -71 11 -20 17 -22 68 -16 42 4 62 2 76
-9 19 -15 19 -15 -3 -15 -13 0 -39 -9 -57 -21 -19 -11 -34 -16 -34 -11 0 5
-12 14 -26 21 -23 10 -30 9 -50 -10 -33 -31 -48 -82 -34 -110 13 -23 -1 -51
-14 -30 -5 8 -13 8 -27 0 -20 -10 -20 -11 -3 -37 12 -18 13 -27 6 -30 -19 -6
-14 -30 7 -37 26 -8 53 5 47 22 -7 18 19 69 53 105 14 15 34 36 44 47 20 25
42 28 33 6 -3 -9 1 -18 10 -22 12 -4 9 -11 -16 -36 -39 -38 -48 -72 -25 -97
10 -11 24 -20 31 -20 19 0 6 -30 -25 -58 -22 -19 -24 -24 -11 -32 11 -7 22 -1
42 21 16 17 28 34 28 39 0 4 6 11 13 13 6 3 3 6 -8 7 -18 1 -18 2 4 14 22 12
27 12 43 -9 19 -24 14 -52 -19 -115 -26 -50 -12 -92 24 -71 11 6 13 11 5 11
-7 0 -10 5 -7 11 4 6 8 23 10 37 10 81 30 121 62 122 10 0 9 -10 -3 -40 -10
-24 -14 -53 -10 -71 5 -25 3 -29 -12 -27 -10 2 -17 -3 -17 -12 -1 -8 -16 -35
-34 -60 -18 -25 -37 -55 -42 -67 -5 -13 -16 -23 -24 -23 -13 0 -15 -9 -13 -37
2 -31 9 -41 33 -52 26 -13 33 -12 65 5 23 13 36 27 38 44 2 14 10 32 18 40 7
9 11 25 8 37 -5 17 1 25 26 38 30 15 33 15 45 -2 13 -17 15 -17 36 4 29 28 19
57 -16 50 -26 -5 -47 16 -38 40 2 6 -4 17 -15 25 -31 22 -35 38 -16 59 23 26
32 24 26 -6 -6 -31 15 -33 52 -4 34 27 35 53 1 47 -28 -6 -32 3 -10 22 8 7 15
27 15 44 0 42 12 58 41 53 13 -2 18 -2 11 0 -15 6 -9 43 14 77 21 33 40 28 36
-8 -1 -14 2 -26 8 -26 5 0 10 -7 10 -15 0 -8 -7 -15 -15 -15 -9 0 -21 -11 -27
-25 -7 -16 -14 -21 -18 -14 -5 6 -17 8 -29 4 -18 -5 -20 -9 -10 -21 6 -8 17
-14 24 -14 9 0 5 -22 -16 -76 l-29 -76 22 -28 c13 -16 32 -29 44 -29 13 -1 25
-12 35 -34 15 -35 50 -47 75 -27 12 10 14 8 14 -15 0 -25 -3 -27 -32 -23 -22
4 -38 -1 -51 -12 -18 -17 -18 -18 0 -29 15 -9 16 -12 4 -20 -10 -6 -22 -6 -35
1 -15 8 -22 7 -33 -8 -20 -27 -16 -43 14 -50 20 -5 30 -2 43 13 9 11 26 25 38
32 19 10 25 8 47 -16 21 -24 26 -26 35 -13 6 8 9 29 6 46 -4 27 2 38 39 73 29
28 46 38 51 30 4 -7 0 -17 -9 -24 -9 -7 -14 -20 -11 -31 3 -13 -5 -29 -25 -48
-28 -27 -31 -36 -31 -89 0 -59 0 -59 28 -55 15 3 34 8 43 12 16 7 43 -12 52
-36 9 -25 14 -2 9 41 -3 32 -9 45 -23 48 -11 3 -19 11 -19 19 0 7 -9 22 -21
33 -24 22 -18 41 15 41 43 0 59 36 29 65 -14 14 -14 18 -2 26 11 7 9 10 -8 15
-29 8 -29 8 3 49 23 30 28 33 50 23 23 -11 34 -38 14 -38 -14 0 0 -162 15
-179 18 -19 62 -6 70 20 10 32 16 17 26 -67 9 -80 25 -111 53 -101 23 9 20 47
-8 99 -13 25 -27 65 -31 89 -4 24 -9 53 -12 64 -2 11 -7 36 -10 56 -5 35 -3
37 25 44 35 7 72 -8 72 -30 0 -9 -10 -15 -24 -15 -15 0 -26 -7 -29 -20 -5 -18
0 -20 39 -20 40 0 44 2 44 24 0 14 -9 41 -21 60 -19 32 -19 37 -4 42 9 4 21 0
29 -11 27 -38 83 6 58 46 -18 29 -5 39 38 30 27 -5 31 -8 17 -14 -26 -10 -60
-94 -47 -118 6 -10 13 -19 16 -19 17 0 49 27 84 71 49 62 43 83 -24 93 -42 7
-45 9 -33 27 14 23 33 25 41 4 3 -8 12 -15 20 -15 16 0 73 -98 101 -173 19
-51 42 -65 30 -19 -3 15 -24 65 -45 112 -25 54 -36 88 -30 94 17 17 11 55 -11
66 -16 9 -18 14 -8 26 6 8 17 14 23 14 7 0 6 -4 -2 -9 -11 -6 -10 -11 3 -25
21 -21 24 -20 34 7 l9 22 10 -26 c17 -44 102 -103 102 -71 0 11 -34 42 -46 42
-5 0 -15 9 -21 20 -10 15 -10 24 4 48 19 33 12 62 -17 69 -11 3 -20 9 -20 14
0 14 16 11 30 -6 15 -18 42 -19 58 -3 13 13 14 11 16 -42 1 -21 6 -25 31 -25
24 0 31 5 39 33 5 17 13 32 17 32 5 0 9 5 9 10 0 11 -30 8 -64 -6 -33 -13 -13
19 24 38 24 12 36 14 41 6 4 -6 19 -8 34 -6 20 4 25 2 20 -10 -6 -17 21 -52
43 -52 24 0 69 39 76 66 7 27 -9 58 -25 48 -5 -3 -9 5 -9 17 0 16 5 20 20 16
21 -5 70 13 70 26 0 5 4 6 9 3 5 -3 14 1 21 9 14 17 16 16 -29 20 -18 2 -45
12 -60 24 -52 42 -72 54 -79 46 -4 -4 5 -17 19 -28 33 -28 46 -72 23 -81 -10
-4 -14 -14 -11 -26 4 -15 0 -20 -13 -20 -11 0 -22 -5 -25 -11 -5 -6 -11 -4
-19 7 -12 16 -14 15 -29 -6 -14 -20 -18 -21 -32 -10 -14 12 -18 11 -26 -1 -6
-10 -9 -6 -10 16 -1 17 -1 38 -1 48 1 10 -4 17 -11 16 -27 -3 -37 2 -37 21 0
11 -7 20 -15 20 -8 0 -15 -5 -15 -11 0 -23 -29 12 -35 42 -5 23 -2 34 12 44
20 16 38 14 38 -3 0 -5 3 -14 8 -18 4 -4 7 -17 7 -28 1 -18 2 -19 10 -4 9 15
12 15 43 0 25 -13 28 -17 14 -20 -12 -2 -17 -11 -15 -25 4 -28 28 -35 28 -8 0
28 23 27 35 -1 15 -33 52 -35 66 -4 17 36 5 54 -38 61 -69 12 -75 15 -62 31
10 12 8 19 -8 36 -12 11 -26 17 -32 14 -17 -11 -3 -26 17 -19 14 5 15 3 5 -7
-11 -11 -17 -10 -37 10 -22 20 -24 29 -19 66 4 30 2 44 -6 44 -11 0 -15 -12
-12 -42 2 -11 -5 -18 -15 -18 -10 0 -14 3 -11 7 4 3 3 11 -2 17 -5 6 -12 26
-16 44 -6 30 -5 32 19 32 14 0 26 5 26 10 0 6 -7 10 -15 10 -8 0 -12 6 -9 14
3 8 13 12 25 9 26 -7 35 -23 18 -34 -8 -5 -9 -9 -3 -9 7 0 15 -21 19 -46 7
-50 26 -64 57 -45 17 11 24 9 42 -8 12 -12 28 -21 35 -21 8 0 10 -7 6 -20 -5
-17 -2 -20 22 -22 47 -3 57 -4 86 -11 20 -6 33 -2 48 12 11 10 16 22 11 25 -5
3 -15 -1 -22 -9 -10 -12 -16 -13 -39 -1 -29 16 -87 73 -80 80 2 3 24 0 48 -5
24 -5 51 -7 60 -4 9 2 29 -2 45 -10 65 -34 111 -4 63 40 -22 21 -29 23 -56 12
-25 -9 -37 -8 -66 6 -19 9 -35 21 -35 27 0 5 -11 10 -25 10 -15 0 -40 7 -58
17 -29 14 -30 17 -12 23 19 7 19 7 -3 14 -13 4 -28 3 -35 -2 -11 -10 -47 6
-47 20 0 14 57 15 82 2 27 -14 57 -19 45 -8 -3 4 0 13 8 21 8 8 15 23 15 33 0
43 -97 114 -137 99 -24 -9 -47 -44 -38 -59 10 -15 47 -12 67 7 10 9 21 13 25
9 8 -8 -11 -42 -21 -38 -3 1 -28 2 -56 2 -42 0 -52 4 -66 25 -15 24 -15 26 11
57 47 56 61 62 99 44 19 -9 36 -23 40 -31 3 -8 10 -15 17 -15 6 0 9 7 5 15 -4
12 -2 13 17 2 12 -6 33 -20 46 -29 34 -26 55 -24 39 2 -7 11 -19 20 -26 20
-18 0 -150 66 -168 85 -9 8 -21 15 -28 15 -16 0 -46 32 -46 49 0 7 5 9 12 5 7
-4 8 -3 4 4 -4 6 -13 9 -20 6 -8 -3 -33 24 -65 70 -33 48 -66 83 -91 97 -40
23 -57 54 -22 42 10 -4 14 -2 9 3 -5 5 -18 9 -30 9 -20 0 -31 21 -43 85 -4 22
-1 25 27 27 18 1 34 5 37 7 2 3 -14 33 -37 67 -53 79 -52 104 4 104 33 0 39 3
37 19 -8 43 17 0 58 -103 38 -92 49 -111 66 -111 12 0 27 7 34 16 11 13 10 16
-7 20 -28 8 -43 44 -50 122 -5 48 -3 63 5 58 7 -4 17 -4 23 0 8 5 8 9 -1 14
-9 6 -9 12 1 28 12 19 14 18 41 -25 16 -24 39 -54 52 -66 23 -22 80 -87 150
-170 22 -26 44 -47 50 -47 5 0 17 -7 27 -16 10 -9 26 -14 34 -10 14 5 11 13
-18 54 -34 47 -113 202 -182 361 -28 61 -34 85 -25 91 9 5 9 9 1 14 -6 4 -9
11 -6 16 3 5 -4 12 -16 15 -11 4 -18 13 -15 20 2 7 -2 16 -11 19 -10 4 -14 15
-11 31 3 13 0 26 -7 29 -7 2 -15 14 -18 26 -11 42 25 16 55 -40 16 -30 45 -84
65 -118 25 -47 32 -67 24 -75 -17 -17 -13 -26 7 -20 30 7 87 -69 158 -213 36
-73 77 -144 91 -158 33 -33 62 -42 79 -24 12 12 9 22 -22 73 -67 112 -169 323
-160 332 4 4 56 -99 56 -112 0 -2 31 -48 68 -102 86 -124 122 -200 102 -214
-12 -7 -11 -10 8 -15 24 -7 36 -30 74 -144 20 -59 30 -76 46 -78 16 -2 23 3
28 23 7 28 -11 81 -30 88 -14 6 -91 136 -128 217 -14 30 -40 75 -59 100 -19
25 -42 57 -52 73 -22 34 -59 149 -45 141 12 -8 71 -133 71 -151 0 -15 19 -17
33 -3 7 7 23 -7 48 -40 21 -28 40 -50 42 -50 4 0 -27 51 -53 88 -15 21 -14 22
8 22 22 0 89 -39 89 -52 0 -4 6 -13 13 -20 28 -28 62 -84 59 -95 -2 -7 3 -13
11 -13 7 0 28 -16 47 -35 19 -19 41 -35 51 -35 9 0 22 -7 29 -15 7 -8 19 -15
26 -15 8 0 14 -5 14 -11 0 -12 7 -6 64 58 l37 42 -22 25 c-13 14 -28 26 -35
26 -7 0 -15 8 -17 18 -4 14 -5 15 -6 1 0 -9 -10 -19 -21 -22 -14 -4 -25 4 -42
32 -12 20 -24 40 -27 45 -2 5 -12 19 -23 31 -20 23 -118 182 -118 191 0 3 -37
60 -83 127 -112 164 -105 150 -68 142 20 -4 31 -3 31 4 0 6 -9 11 -19 11 -11
0 -23 5 -26 11 -4 6 -13 8 -21 5 -17 -6 -25 7 -34 55 -6 32 -4 40 11 44 15 5
46 65 33 65 -3 0 -18 -13 -33 -29 -21 -21 -31 -26 -34 -17 -3 8 -1 18 5 24 8
8 4 14 -16 22 -15 5 -34 10 -42 10 -19 0 -18 16 1 24 8 3 15 11 15 19 0 24 58
7 91 -26 27 -26 30 -36 26 -69 -5 -39 -4 -41 43 -42 15 -1 25 -7 26 -16 0 -8
4 -23 9 -33 10 -25 1 -31 -27 -16 -23 12 -23 12 -5 -9 10 -11 31 -25 46 -31
35 -15 95 -114 87 -144 -7 -25 43 -207 57 -207 5 0 7 10 3 23 -3 12 -9 47 -12
77 l-6 55 31 -50 c21 -34 27 -53 20 -61 -7 -9 -5 -13 7 -16 9 -1 33 -32 53
-68 30 -53 42 -66 65 -68 29 -4 29 0 9 54 -6 18 34 26 130 26 48 0 91 -1 95
-1 5 -1 27 -17 51 -37 32 -28 39 -39 31 -49 -8 -10 -8 -15 1 -20 6 -4 14 -2
18 4 5 8 15 6 33 -9 15 -11 40 -21 57 -23 17 -2 34 -7 38 -10 3 -4 11 -7 17
-7 6 1 0 9 -12 20 -28 23 -121 148 -123 164 -1 6 -1 17 0 24 1 7 -8 26 -20 43
-11 16 -38 61 -59 100 l-39 69 29 -20 c16 -12 33 -26 37 -33 11 -17 152 -147
188 -175 168 -126 205 -155 205 -163 0 -14 85 -59 112 -59 19 0 27 6 32 25 4
14 4 30 1 35 -3 5 -88 84 -188 176 -100 93 -218 202 -262 245 -44 42 -109 102
-145 135 -101 91 -104 94 -95 94 5 0 16 -6 24 -14 22 -19 130 -76 139 -73 12
3 72 -25 72 -34 0 -5 5 -9 11 -9 19 0 79 -52 72 -63 -4 -6 0 -8 9 -5 24 10
190 -121 201 -157 17 -61 26 -75 42 -69 12 5 14 14 9 36 l-6 30 28 -15 c54
-28 137 -49 145 -35 10 15 57 -16 169 -111 47 -40 101 -81 120 -91 19 -10 48
-32 64 -49 32 -34 66 -40 86 -16 18 22 -7 47 -67 64 -54 16 -114 44 -134 63
-81 77 -201 158 -302 206 -82 38 -252 163 -236 173 19 11 0 31 -19 20 -12 -7
-26 -1 -55 21 -21 17 -34 34 -28 37 6 4 7 12 1 21 -8 13 -10 12 -10 -2 0 -26
-11 -22 -60 22 -25 23 -55 48 -67 57 -12 9 -20 20 -17 25 3 4 7 26 10 47 6 48
-17 81 -55 81 -23 0 -101 69 -101 90 0 5 -12 12 -27 17 l-28 10 23 12 c19 10
28 9 58 -10 37 -23 86 -70 79 -77 -7 -7 -45 10 -40 18 3 5 1 11 -4 14 -5 4
-13 1 -17 -5 -10 -16 32 -49 63 -49 22 0 84 -35 91 -52 2 -5 10 -8 18 -8 8 0
13 -5 12 -12 -2 -7 4 -12 12 -13 37 -1 311 -232 355 -298 9 -15 21 -25 25 -22
5 3 12 0 16 -6 4 -8 3 -9 -4 -5 -7 4 -12 1 -12 -8 0 -17 18 -31 28 -22 3 4 5
24 4 46 l-3 39 48 -4 c53 -4 163 -52 163 -71 0 -22 30 -39 49 -27 13 8 26 7
52 -6 18 -9 79 -36 134 -61 55 -24 106 -50 113 -57 8 -7 18 -10 24 -7 7 4 8 2
4 -4 -4 -7 3 -14 18 -18 18 -4 30 -18 42 -52 30 -81 47 -89 58 -28 5 25 14 37
34 44 41 16 157 24 186 12 33 -12 56 -3 56 21 0 27 -44 46 -65 29 -20 -16
-250 -21 -234 -6 19 20 7 37 -48 65 -32 16 -141 79 -241 140 -101 61 -186 111
-188 111 -6 0 -187 109 -193 117 -3 3 -1 3 6 -1 6 -3 14 -2 18 4 4 6 -7 10
-27 10 -44 1 -143 60 -143 86 0 15 -7 19 -35 20 -43 1 -150 72 -129 85 11 6
10 9 -3 14 -10 4 -23 3 -29 -1 -9 -5 -10 -2 -6 10 5 13 3 16 -11 12 -9 -3 -30
3 -47 14 l-30 20 40 -6 c40 -6 87 -26 115 -49 8 -6 36 -19 62 -29 26 -9 54
-29 63 -43 12 -17 20 -22 24 -14 5 8 32 0 92 -27 46 -21 113 -49 147 -62 35
-14 68 -33 73 -42 7 -12 6 -18 -1 -18 -7 0 2 -14 19 -31 33 -33 61 -33 61 -1
0 32 18 40 68 30 26 -5 70 -11 98 -12 39 -2 68 -13 122 -46 40 -23 72 -47 72
-54 0 -6 15 -16 33 -23 17 -6 95 -33 172 -60 77 -27 172 -66 210 -86 84 -44
132 -52 127 -22 -12 66 -125 141 -234 155 -35 5 -86 20 -115 34 -48 23 -83 26
-83 6 0 -4 -11 -7 -24 -6 -17 1 -21 4 -15 12 7 8 -2 16 -28 27 -128 51 -284
135 -313 167 -3 3 -16 7 -29 7 -14 1 -28 9 -33 17 -4 8 -25 20 -46 27 -51 16
-169 76 -177 90 -4 6 -23 17 -41 25 -19 8 -34 18 -34 22 0 15 33 10 100 -13
122 -43 149 -58 165 -92 16 -33 25 -39 38 -26 4 3 -2 12 -13 20 -11 8 -20 19
-20 24 0 5 35 -8 78 -30 42 -22 91 -43 107 -47 17 -4 44 -13 60 -20 17 -7 32
-13 35 -13 29 -4 249 -87 293 -110 56 -29 87 -32 87 -6 0 21 -21 32 -120 59
-179 48 -421 139 -407 152 2 2 25 -3 51 -11 27 -8 52 -13 56 -10 4 3 30 -2 56
-10 87 -27 288 -65 293 -57 3 5 56 16 116 25 61 9 120 19 133 23 18 5 24 1 32
-22 7 -20 24 -36 56 -50 l47 -22 28 26 c16 14 29 34 29 45 0 17 -5 19 -32 14
-18 -4 -43 -9 -54 -12 -17 -5 -23 -1 -28 20 -4 15 -2 33 4 40 13 16 -1 28 -22
20 -17 -7 -151 28 -214 56 -38 16 -156 51 -297 89 -34 9 -51 20 -60 39 -10 20
-20 26 -42 25 -17 0 -38 -4 -47 -8 -12 -6 -21 0 -32 21 -14 26 -15 26 -16 6 0
-17 -5 -22 -20 -20 -11 2 -23 6 -26 10 -4 4 -22 7 -39 7 -18 0 -52 7 -76 15
-47 17 -180 50 -241 60 -58 9 -59 28 -2 22 51 -6 86 9 90 37 3 23 -65 35 -122
20 -27 -7 -50 -11 -51 -11 -4 5 68 76 79 78 28 3 132 -3 121 -8 -18 -7 -16
-23 2 -23 8 0 15 7 15 15 0 31 49 16 97 -30 28 -27 56 -45 70 -45 16 0 23 -6
23 -20 0 -26 6 -25 42 5 43 36 51 32 44 -20 -4 -25 -4 -45 -1 -45 3 0 23 13
43 29 20 16 58 36 84 46 41 15 57 16 132 5 82 -12 86 -13 80 -35 -4 -18 -1
-25 15 -30 28 -8 44 3 38 26 -6 22 -8 23 167 -27 66 -19 124 -38 130 -44 5 -5
18 -10 28 -10 10 0 18 -4 18 -9 0 -14 212 -80 263 -81 30 0 21 40 -13 51 l-30
11 21 29 c26 37 115 89 151 89 15 0 30 5 33 10 12 19 89 46 141 49 18 1 26 32
13 47 -8 10 -16 11 -29 4 -10 -6 -29 -10 -42 -10 -13 0 -48 -14 -78 -31 -30
-17 -64 -32 -75 -34 -110 -17 -222 -25 -280 -20 -151 13 -172 15 -220 21 -52
6 -257 40 -435 73 -184 34 -176 40 57 40 116 1 218 -2 227 -5 8 -3 12 -12 10
-19 -3 -7 0 -16 6 -20 13 -8 52 24 44 36 -3 5 5 9 18 9 13 0 69 2 126 4 108 5
137 16 129 48 -4 15 1 18 35 18 70 0 113 20 209 97 53 42 126 89 169 109 41
18 82 38 90 44 8 5 36 21 63 35 30 16 47 32 47 44 0 10 7 21 15 25 16 6 21 46
6 46 -11 0 -71 -24 -136 -55 -27 -13 -70 -30 -95 -38 -74 -24 -182 -66 -194
-75 -31 -24 -328 -85 -466 -96 -30 -2 -77 -7 -105 -11 -91 -11 -140 -12 -162
-4 -12 4 -35 4 -52 -1 -17 -5 -33 -5 -36 -1 -6 10 79 23 100 15 8 -4 15 -2 15
3 0 6 29 17 64 26 78 19 328 129 360 158 21 19 -7 21 -61 5 -92 -28 -100 -29
-63 -5 19 12 69 45 110 72 41 28 102 67 136 86 169 100 315 225 386 332 36 55
77 176 84 251 6 54 -24 40 -63 -31 -65 -118 -187 -245 -275 -286 -21 -9 -38
-21 -38 -26 0 -9 -201 -112 -244 -125 -11 -4 -40 -19 -64 -35 -24 -16 -56 -36
-71 -44 -37 -18 -239 -68 -254 -61 -7 2 -3 5 7 5 11 1 17 4 14 7 -3 3 -32 -2
-64 -10 -122 -31 -166 -37 -176 -23 -4 6 -12 4 -22 -6 -9 -8 -29 -18 -46 -22
-16 -4 -30 -10 -30 -15 0 -9 -14 -14 -67 -25 -26 -5 -37 -2 -57 18 -30 30 -42
29 -93 -6 -43 -30 -59 -33 -66 -14 -3 6 -6 1 -6 -12 -1 -17 -5 -21 -17 -17 -8
3 -13 2 -9 -3 8 -14 -18 -20 -39 -8 -15 7 -18 6 -13 -7 5 -13 3 -14 -13 -4
-17 11 -18 15 -7 33 8 11 32 30 55 41 22 12 57 31 76 42 32 19 55 23 131 22
64 -1 86 4 146 31 80 35 92 36 111 7 l14 -21 47 31 c50 35 107 52 107 33 0 -6
7 -11 16 -11 12 0 15 6 11 23 -7 26 30 72 86 105 l38 22 19 -32 c18 -30 18
-32 2 -44 -26 -19 -7 -28 21 -10 16 11 24 26 25 46 2 69 35 112 244 311 37 35
68 69 68 75 0 5 9 20 20 32 11 12 20 24 20 28 0 3 17 27 39 53 47 57 69 99 77
147 3 21 12 47 19 58 20 33 39 148 31 190 -10 52 -29 33 -32 -33 -1 -28 -9
-63 -18 -78 -8 -15 -23 -46 -32 -67 -10 -22 -37 -58 -61 -80 -23 -22 -59 -65
-80 -95 -76 -114 -138 -178 -233 -241 -12 -8 -45 -32 -73 -53 -29 -21 -60 -36
-69 -34 -10 3 -15 0 -12 -8 8 -21 -133 -111 -231 -149 -128 -49 -129 -49 -138
-47 -4 0 -32 -3 -62 -7 -30 -5 -55 -8 -55 -6 0 2 14 11 30 19 37 19 188 170
240 240 47 63 90 144 90 170 0 11 14 47 30 80 30 62 38 91 20 80 -16 -10 -12
12 6 30 13 12 17 43 19 148 3 155 -6 262 -30 335 -19 56 -18 55 -29 45z
m-6926 -1193 c8 -5 11 -10 5 -10 -5 0 -17 5 -25 10 -8 5 -10 10 -5 10 6 0 17
-5 25 -10z m53 -17 c-7 -2 -19 -2 -25 0 -7 3 -2 5 12 5 14 0 19 -2 13 -5z
m1397 -78 c9 -8 52 -32 96 -54 43 -22 70 -40 59 -40 -25 0 -177 80 -183 97 -5
16 8 15 28 -3z m4277 -71 c-3 -3 -12 -4 -19 -1 -8 3 -5 6 6 6 11 1 17 -2 13
-5z m1561 -30 c-3 -3 -38 -25 -77 -49 -51 -31 -94 -49 -146 -60 -98 -20 -134
-19 -70 3 28 9 56 21 63 25 7 5 21 6 31 2 11 -3 22 -1 26 5 7 11 70 41 133 64
47 17 46 17 40 10z m-1083 -24 c-3 -5 -12 -10 -18 -10 -7 0 -6 4 3 10 19 12
23 12 15 0z m-1395 -55 c-7 -8 -17 -15 -22 -15 -6 0 -5 7 2 15 7 8 17 15 22
15 6 0 5 -7 -2 -15z m-3630 -81 c0 -2 -13 -4 -30 -4 -16 0 -30 4 -30 8 0 5 14
7 30 4 17 -2 30 -6 30 -8z m5474 -27 c13 -1 6 -9 -25 -26 -29 -17 -44 -21 -47
-13 -5 17 -20 15 -52 -8 -15 -11 -29 -17 -32 -14 -3 2 -11 -2 -18 -11 -14 -17
-160 -22 -160 -5 0 6 -6 10 -13 10 -8 0 -22 9 -31 19 -17 19 -16 20 31 26 26
3 56 8 66 10 9 2 18 -2 18 -8 1 -7 2 -18 3 -26 0 -8 7 -16 13 -18 9 -3 11 4 7
26 -7 31 -4 33 61 43 19 3 136 0 179 -5z m-3778 -43 c17 -14 17 -15 1 -10 -10
3 -23 6 -28 6 -5 0 -9 5 -9 10 0 14 13 12 36 -6z m1304 -24 c0 -5 -4 -10 -9
-10 -6 0 -13 5 -16 10 -3 6 1 10 9 10 9 0 16 -4 16 -10z m2514 -20 c-6 -6 -35
-13 -65 -15 l-54 -5 45 14 c56 18 88 20 74 6z m-6981 -107 c-7 -2 -19 -2 -25
0 -7 3 -2 5 12 5 14 0 19 -2 13 -5z m7614 1 c-3 -3 -12 -4 -19 -1 -8 3 -5 6 6
6 11 1 17 -2 13 -5z m-7560 -10 c-3 -3 -12 -4 -19 -1 -8 3 -5 6 6 6 11 1 17
-2 13 -5z m33 2 c0 -3 -4 -8 -10 -11 -5 -3 -10 -1 -10 4 0 6 5 11 10 11 6 0
10 -2 10 -4z m40 -12 c0 -2 -7 -4 -15 -4 -8 0 -15 4 -15 10 0 5 7 7 15 4 8 -4
15 -8 15 -10z m53 -1 c-7 -2 -19 -2 -25 0 -7 3 -2 5 12 5 14 0 19 -2 13 -5z
m6207 -54 c0 -8 5 -8 15 1 8 7 23 9 32 6 12 -5 14 -9 6 -14 -16 -10 -9 -48 8
-44 8 2 17 8 20 14 4 7 9 7 13 0 3 -6 -10 -20 -29 -32 -19 -12 -33 -26 -29
-31 3 -5 -5 -9 -17 -9 -18 0 -20 3 -11 12 16 16 15 29 -2 22 -8 -3 -17 -1 -21
5 -3 6 -17 11 -30 11 -13 0 -26 4 -30 10 -3 5 -12 7 -20 3 -8 -3 -15 0 -15 6
0 6 -8 11 -18 11 -10 0 -23 5 -30 12 -8 8 -12 8 -12 1 0 -6 -11 -8 -25 -5 -27
5 -33 17 -12 25 26 11 207 7 207 -4z m-80 -94 c48 -9 56 -13 30 -13 -19 0 -53
5 -75 13 -52 17 -36 17 45 0z m-5057 -52 c-13 -2 -33 -2 -45 0 -13 2 -3 4 22
4 25 0 35 -2 23 -4z m6677 -43 c0 -5 -5 -10 -11 -10 -5 0 -7 5 -4 10 3 6 8 10
11 10 2 0 4 -4 4 -10z m-6223 -46 c25 -4 28 -14 4 -14 -12 0 -19 -4 -16 -10 4
-6 -7 -10 -25 -10 -18 0 -29 4 -25 10 3 6 -3 10 -15 10 -11 0 -23 -7 -26 -15
-4 -9 -19 -15 -40 -15 -28 0 -37 -5 -46 -27 -9 -24 -12 -25 -16 -9 -5 23 47
77 79 82 13 2 38 7 54 12 20 6 35 5 44 -1 7 -6 20 -12 28 -13z m6168 -14 c-3
-5 -16 -10 -28 -10 -18 0 -19 2 -7 10 20 13 43 13 35 0z m-6478 -31 c26 -14
19 -33 -28 -83 l-28 -30 -10 28 c-6 15 -11 33 -11 41 0 7 -13 18 -30 24 -36
12 -40 25 -5 19 14 -3 27 -2 29 1 8 12 61 12 83 0z m-167 -49 c-14 -11 -32
-20 -40 -20 -9 0 -21 -5 -28 -12 -6 -6 -39 -11 -76 -10 -36 0 -80 -3 -98 -9
-23 -6 -34 -5 -40 4 -10 16 16 25 74 26 26 1 67 5 90 11 34 7 95 20 138 29 3
0 -6 -8 -20 -19z m860 5 c-10 -9 -24 -12 -40 -7 -24 6 -23 7 10 13 19 3 37 7
40 8 2 0 -2 -6 -10 -14z m3666 -10 c4 -8 10 -12 15 -9 17 10 9 -13 -11 -31
-25 -23 -40 -10 -33 28 6 30 20 36 29 12z m703 -20 c2 -2 0 -12 -4 -22 -5 -12
-9 -14 -12 -5 -3 6 -9 10 -14 7 -5 -4 -6 2 -2 11 4 11 3 15 -5 10 -6 -3 -14
-1 -18 5 -5 9 1 10 22 5 16 -4 31 -9 33 -11z m-4459 -11 c0 -8 -71 -36 -77
-30 -3 3 10 12 28 20 38 16 49 19 49 10z m547 -53 c-34 -32 -77 -66 -94 -75
-18 -9 -33 -21 -33 -27 0 -6 8 -6 21 1 35 19 33 2 -2 -19 -19 -12 -37 -21 -41
-21 -5 0 -8 -7 -8 -15 0 -8 -4 -15 -9 -15 -5 0 -16 -6 -23 -12 -46 -44 -115
-88 -130 -84 -11 2 -18 -1 -18 -9 0 -16 -19 -23 -43 -17 -21 5 -14 39 12 59
20 16 34 16 49 1 17 -17 22 -8 29 51 4 37 9 49 16 42 6 -6 16 -11 22 -11 5 0
4 4 -4 9 -11 7 -5 13 25 26 21 9 71 36 110 61 40 24 76 44 80 44 5 0 27 16 49
35 64 55 59 40 -8 -24z m-1627 29 c-19 -13 -30 -13 -30 0 0 6 10 10 23 10 18
0 19 -2 7 -10z m4658 -315 c29 -26 52 -53 52 -61 0 -7 12 -17 28 -20 32 -8
106 -66 129 -101 9 -14 18 -41 20 -61 2 -26 14 -47 41 -76 34 -35 101 -128
127 -176 13 -25 -94 82 -118 117 -12 18 -25 33 -29 33 -14 0 -58 48 -58 64 0
9 -6 16 -13 16 -13 0 -137 122 -137 134 0 4 9 2 19 -4 24 -13 44 -13 36 -1 -5
9 -62 41 -72 41 -2 0 -1 -6 3 -12 3 -7 -6 0 -21 15 -15 16 -24 31 -20 35 3 3
10 0 15 -8 5 -8 12 -11 16 -7 9 9 -26 36 -47 37 -22 0 -66 60 -61 82 5 23 22
14 90 -47z m-3064 30 c-9 -14 -18 -25 -21 -25 -5 0 5 18 20 38 17 22 18 13 1
-13z m-1009 -35 c-3 -5 -13 -10 -21 -10 -8 0 -12 5 -9 10 3 6 13 10 21 10 8 0
12 -4 9 -10z m1620 -40 c-4 -6 -14 -9 -22 -5 -13 4 -13 3 -4 -9 9 -11 0 -23
-50 -65 -33 -28 -66 -51 -72 -51 -7 0 6 15 27 33 22 19 37 38 33 43 -10 17 30
72 55 76 27 5 43 -6 33 -22z m1619 -29 c-6 -6 -24 19 -24 34 1 6 7 1 15 -9 8
-11 12 -22 9 -25z m232 -19 c1 -15 2 -35 3 -45 0 -10 7 -17 13 -15 12 4 103
-170 94 -179 -2 -2 -17 12 -35 32 -20 23 -31 46 -31 65 0 17 -5 29 -11 28 -14
-4 -51 90 -44 112 3 10 1 21 -5 25 -5 3 -10 11 -10 18 0 24 24 -14 26 -41z
m-3096 -42 c-35 -24 -54 -31 -30 -11 14 11 30 21 35 21 6 0 3 -5 -5 -10z m-80
-43 c0 -6 -183 -133 -210 -147 -22 -10 -21 -9 5 13 17 14 41 32 55 39 14 7 52
32 85 55 58 42 65 46 65 40z m4927 -53 c-3 -3 -12 -4 -19 -1 -8 3 -5 6 6 6 11
1 17 -2 13 -5z m-1613 -90 c3 -8 2 -12 -4 -9 -6 3 -10 10 -10 16 0 14 7 11 14
-7z m447 -116 c42 -84 32 -81 -13 3 -21 39 -33 67 -28 64 6 -4 24 -34 41 -67z
m1574 12 c3 -5 1 -10 -4 -10 -6 0 -11 5 -11 10 0 6 2 10 4 10 3 0 8 -4 11 -10z
m-2482 -568 c36 -38 54 -78 23 -53 -10 8 -16 9 -21 1 -3 -6 -10 -8 -15 -5 -9
5 -60 101 -60 111 0 11 38 -18 73 -54z m37 -102 c6 -10 7 -26 4 -34 -4 -9 -1
-23 6 -31 7 -9 10 -18 6 -22 -3 -3 -6 -1 -6 6 0 8 -7 11 -15 7 -15 -5 -40 26
-29 37 3 3 -2 16 -11 30 -12 20 -13 26 -3 30 19 6 37 -3 48 -23z m-1194 -462
c5 -17 -1 -28 -26 -51 -24 -21 -35 -26 -40 -17 -4 7 -13 9 -20 5 -10 -6 -9
-11 3 -20 15 -11 14 -13 -9 -24 -19 -8 -24 -8 -18 1 5 8 2 9 -11 4 -51 -19
-27 62 24 84 17 7 36 18 42 26 17 21 47 17 55 -8z m1041 -146 c-6 -73 2 -99
26 -89 9 3 18 -1 21 -9 3 -8 10 -14 16 -14 6 0 9 4 6 8 -12 19 -15 67 -4 73
15 10 0 29 -17 22 -12 -4 -15 4 -15 33 l0 37 34 -39 c27 -31 32 -42 23 -53 -9
-11 -9 -15 1 -18 7 -3 12 -21 12 -42 0 -30 -5 -40 -24 -51 -22 -11 -27 -10
-51 16 -47 52 -56 79 -49 139 10 81 28 70 21 -13z m-949 -85 c2 -10 -8 -16
-35 -20 -47 -6 -70 11 -54 41 10 18 14 19 48 7 21 -7 39 -20 41 -28z m973 -62
c7 5 10 3 8 -4 -3 -7 -8 -12 -12 -12 -4 1 -16 1 -27 1 -14 0 -20 7 -20 22 0
20 1 20 19 4 11 -10 25 -15 32 -11z m-1096 -15 c-3 -5 -11 -10 -16 -10 -6 0
-7 5 -4 10 3 6 11 10 16 10 6 0 7 -4 4 -10z m45 0 c0 -5 -2 -10 -4 -10 -3 0
-8 5 -11 10 -3 6 -1 10 4 10 6 0 11 -4 11 -10z m785 -21 c19 -36 16 -41 -21
-41 -14 0 -22 -3 -16 -7 5 -3 12 -16 16 -28 5 -16 15 -23 32 -23 13 0 24 5 24
10 0 13 43 13 56 1 5 -5 29 -11 52 -14 24 -2 47 -10 52 -17 9 -15 -17 -63 -30
-55 -14 9 -40 -6 -33 -19 4 -7 1 -6 -9 2 -19 15 -39 8 -56 -19 -10 -16 -10
-24 -1 -35 6 -7 8 -22 5 -31 -5 -11 -10 -14 -14 -7 -4 6 -18 14 -32 18 -19 6
-21 5 -10 -3 14 -10 13 -12 -20 -15 -9 0 -15 -10 -14 -23 1 -24 -10 -30 -21
-13 -3 6 -15 10 -26 10 -10 0 -19 3 -20 8 0 4 -2 15 -4 25 -2 9 3 17 11 17 8
0 14 10 14 25 0 14 11 38 25 52 25 28 26 45 1 24 -22 -18 -32 35 -10 56 15 15
15 18 0 28 -12 9 -14 21 -10 44 5 25 9 29 21 20 17 -15 31 -3 15 13 -15 15
-16 28 -2 28 5 0 17 -14 25 -31z m306 -52 c8 -13 6 -19 -8 -23 -10 -3 -28 -10
-40 -14 -26 -11 -34 4 -22 38 5 12 6 22 2 22 -4 0 2 7 13 15 20 15 30 9 55
-38z m-1101 -31 c0 -39 -2 -44 -20 -39 -25 7 -26 32 -2 61 9 12 18 22 20 22 1
0 2 -20 2 -44z m421 -80 c-6 -7 -9 -20 -6 -28 3 -8 -1 -21 -10 -28 -13 -11
-19 -10 -36 6 -13 11 -23 14 -27 8 -4 -6 -15 -13 -24 -17 -15 -5 -18 -18 -18
-67 0 -47 -3 -60 -15 -60 -16 0 -21 25 -6 34 4 3 4 23 -2 45 -14 52 3 96 34
86 12 -4 27 -1 37 8 15 13 31 19 76 26 5 0 3 -5 -3 -13z m93 -25 c24 -26 12
-42 -24 -34 -28 5 -30 3 -31 -23 0 -23 -2 -25 -8 -11 -4 10 -5 34 -3 53 3 27
9 34 27 34 12 0 30 -9 39 -19z m-382 -43 c-7 -7 -12 -8 -12 -2 0 6 3 14 7 17
3 4 9 5 12 2 2 -3 -1 -11 -7 -17z m271 -51 c-7 -33 -36 -34 -41 0 -2 16 3 22
20 25 13 2 24 4 25 3 1 0 -1 -13 -4 -28z m141 -15 c13 -26 12 -30 -15 -67 -16
-21 -29 -35 -29 -30 0 5 -6 1 -13 -10 -8 -10 -17 -14 -20 -8 -4 5 7 23 23 38
30 28 39 55 20 55 -5 0 -10 -5 -10 -12 0 -6 -16 -27 -36 -45 -30 -27 -34 -36
-24 -48 6 -8 9 -19 5 -26 -15 -23 -25 16 -19 76 6 73 29 98 91 104 7 0 19 -11
27 -27z m142 -28 c5 -18 1 -29 -12 -39 -25 -17 -27 -14 -19 29 8 42 22 47 31
10z m18 -111 c3 -21 6 -47 6 -58 0 -18 -1 -18 -16 3 -8 12 -21 22 -29 22 -21
0 -26 15 -15 44 15 41 46 34 54 -11z"/>
<path d="M7366 5725 c4 -8 10 -15 15 -15 5 0 9 7 9 15 0 8 -7 15 -15 15 -9 0
-12 -6 -9 -15z"/>
<path d="M6935 5511 c-3 -5 -1 -12 4 -15 5 -3 11 1 15 9 6 16 -9 21 -19 6z"/>
<path d="M1990 5215 c-8 -9 -8 -15 -2 -15 12 0 26 19 19 26 -2 2 -10 -2 -17
-11z"/>
<path d="M2942 4919 c2 -6 8 -10 13 -10 5 0 11 4 13 10 2 6 -4 11 -13 11 -9 0
-15 -5 -13 -11z"/>
<path d="M5265 3820 c3 -5 8 -10 11 -10 2 0 4 5 4 10 0 6 -5 10 -11 10 -5 0
-7 -4 -4 -10z"/>
<path d="M4096 3243 c-11 -11 -6 -23 9 -23 8 0 15 4 15 9 0 13 -16 22 -24 14z"/>
<path d="M5000 2830 c0 -5 7 -10 16 -10 8 0 12 5 9 10 -3 6 -10 10 -16 10 -5
0 -9 -4 -9 -10z"/>
<path d="M5035 2803 c-26 -3 -50 -14 -67 -31 -24 -22 -37 -52 -23 -52 9 0 78
41 92 56 8 7 21 14 28 14 8 0 17 5 20 10 3 6 3 9 -2 8 -4 -1 -26 -3 -48 -5z"/>
<path d="M4945 2780 c-3 -5 -1 -10 4 -10 6 0 11 5 11 10 0 6 -2 10 -4 10 -3 0
-8 -4 -11 -10z"/>
<path d="M2930 7090 c-13 -8 -13 -10 2 -10 9 0 20 5 23 10 8 13 -5 13 -25 0z"/>
<path d="M3630 7090 c-13 -8 -13 -10 2 -10 9 0 20 5 23 10 8 13 -5 13 -25 0z"/>
<path d="M1565 6901 c-6 -11 9 -23 19 -14 9 9 7 23 -3 23 -6 0 -12 -4 -16 -9z"/>
<path d="M1426 6871 c-4 -7 -5 -15 -2 -18 9 -9 19 4 14 18 -4 11 -6 11 -12 0z"/>
<path d="M7610 6851 c0 -17 18 -21 24 -6 3 9 0 15 -9 15 -8 0 -15 -4 -15 -9z"/>
<path d="M1840 6775 c0 -25 14 -34 24 -16 8 12 -3 41 -15 41 -5 0 -9 -11 -9
-25z"/>
<path d="M596 6741 c-4 -7 -5 -15 -2 -18 9 -9 19 4 14 18 -4 11 -6 11 -12 0z"/>
<path d="M1382 6718 c-15 -19 2 -48 19 -31 7 7 8 17 2 28 -8 13 -11 14 -21 3z"/>
<path d="M1425 6700 c-3 -5 -1 -10 4 -10 6 0 11 5 11 10 0 6 -2 10 -4 10 -3 0
-8 -4 -11 -10z"/>
<path d="M8173 6668 c-12 -16 -13 -48 -1 -48 4 0 8 3 9 8 7 60 7 59 -8 40z"/>
<path d="M6720 6614 c0 -8 5 -12 10 -9 6 4 8 11 5 16 -9 14 -15 11 -15 -7z"/>
<path d="M7890 6574 c0 -8 5 -12 10 -9 6 3 10 10 10 16 0 5 -4 9 -10 9 -5 0
-10 -7 -10 -16z"/>
<path d="M1650 6570 c0 -5 4 -10 9 -10 6 0 13 5 16 10 3 6 -1 10 -9 10 -9 0
-16 -4 -16 -10z"/>
<path d="M8410 6520 c0 -5 5 -10 10 -10 6 0 10 5 10 10 0 6 -4 10 -10 10 -5 0
-10 -4 -10 -10z"/>
<path d="M860 6496 c0 -9 5 -16 10 -16 6 0 10 4 10 9 0 6 -4 13 -10 16 -5 3
-10 -1 -10 -9z"/>
<path d="M7540 6500 c0 -5 5 -10 10 -10 6 0 10 5 10 10 0 6 -4 10 -10 10 -5 0
-10 -4 -10 -10z"/>
<path d="M1095 6485 c-16 -7 -38 -16 -47 -19 -30 -9 -20 -26 12 -22 17 2 32 5
33 7 1 2 11 14 21 27 22 25 21 25 -19 7z"/>
<path d="M1555 6490 c-3 -5 -1 -10 4 -10 6 0 11 5 11 10 0 6 -2 10 -4 10 -3 0
-8 -4 -11 -10z"/>
<path d="M6220 6489 c0 -5 5 -7 10 -4 6 3 10 8 10 11 0 2 -4 4 -10 4 -5 0 -10
-5 -10 -11z"/>
<path d="M7910 6490 c-8 -5 -11 -12 -8 -16 10 -9 38 3 38 16 0 12 -10 13 -30
0z"/>
<path d="M7876 6466 c3 -9 11 -16 16 -16 13 0 5 23 -10 28 -7 2 -10 -2 -6 -12z"/>
<path d="M490 6445 c0 -8 5 -15 10 -15 6 0 10 7 10 15 0 8 -4 15 -10 15 -5 0
-10 -7 -10 -15z"/>
<path d="M7245 6450 c3 -5 8 -10 11 -10 2 0 4 5 4 10 0 6 -5 10 -11 10 -5 0
-7 -4 -4 -10z"/>
<path d="M1550 6430 c0 -5 4 -10 9 -10 6 0 13 5 16 10 3 6 -1 10 -9 10 -9 0
-16 -4 -16 -10z"/>
<path d="M2085 6410 c-3 -5 -1 -10 4 -10 6 0 11 5 11 10 0 6 -2 10 -4 10 -3 0
-8 -4 -11 -10z"/>
<path d="M7870 6400 c0 -5 6 -10 14 -10 8 0 18 5 21 10 3 6 -3 10 -14 10 -12
0 -21 -4 -21 -10z"/>
<path d="M8530 6380 c0 -5 4 -10 9 -10 6 0 13 5 16 10 3 6 -1 10 -9 10 -9 0
-16 -4 -16 -10z"/>
<path d="M1216 6364 c-16 -43 13 -64 34 -24 8 15 6 21 -9 29 -15 8 -20 7 -25
-5z"/>
<path d="M1670 6360 c0 -5 5 -10 10 -10 6 0 10 5 10 10 0 6 -4 10 -10 10 -5 0
-10 -4 -10 -10z"/>
<path d="M7020 6360 c-26 -16 -3 -22 27 -6 23 13 24 15 8 15 -11 1 -27 -3 -35
-9z"/>
<path d="M8256 6362 c-3 -6 1 -15 8 -21 8 -7 17 -8 20 -3 3 6 -1 15 -8 21 -8
7 -17 8 -20 3z"/>
<path d="M1840 6356 c0 -13 42 -47 54 -43 21 7 17 27 -6 27 -13 0 -29 5 -36
12 -7 7 -12 8 -12 4z"/>
<path d="M7720 6350 c0 -5 5 -10 10 -10 6 0 10 5 10 10 0 6 -4 10 -10 10 -5 0
-10 -4 -10 -10z"/>
<path d="M2590 6340 c0 -5 4 -10 9 -10 6 0 13 5 16 10 3 6 -1 10 -9 10 -9 0
-16 -4 -16 -10z"/>
<path d="M6477 6343 c-4 -3 -7 -12 -7 -20 0 -15 26 -18 34 -4 7 11 -18 33 -27
24z"/>
<path d="M7250 6314 c0 -8 5 -12 10 -9 6 3 10 10 10 16 0 5 -4 9 -10 9 -5 0
-10 -7 -10 -16z"/>
<path d="M590 6310 c0 -5 5 -10 10 -10 6 0 10 5 10 10 0 6 -4 10 -10 10 -5 0
-10 -4 -10 -10z"/>
<path d="M8315 6299 c-10 -15 3 -25 16 -12 7 7 7 13 1 17 -6 3 -14 1 -17 -5z"/>
<path d="M1276 6261 c-4 -7 -5 -15 -2 -18 9 -9 19 4 14 18 -4 11 -6 11 -12 0z"/>
<path d="M2020 6250 c-9 -16 -8 -22 5 -26 21 -8 39 10 32 30 -9 22 -24 20 -37
-4z"/>
<path d="M6535 6261 c-3 -5 -1 -12 5 -16 5 -3 10 1 10 9 0 18 -6 21 -15 7z"/>
<path d="M6334 6245 c-10 -8 -14 -15 -8 -15 6 0 17 7 24 15 16 19 9 19 -16 0z"/>
<path d="M8177 6254 c-14 -14 -7 -35 11 -32 9 2 17 10 17 17 0 16 -18 25 -28
15z"/>
<path d="M2711 6234 c0 -11 3 -14 6 -6 3 7 2 16 -1 19 -3 4 -6 -2 -5 -13z"/>
<path d="M7100 6231 c0 -15 6 -21 21 -21 25 0 22 33 -4 38 -12 2 -17 -3 -17
-17z"/>
<path d="M8190 6184 c0 -8 5 -12 10 -9 6 3 10 10 10 16 0 5 -4 9 -10 9 -5 0
-10 -7 -10 -16z"/>
<path d="M8778 6143 c-27 -19 -48 -39 -48 -43 0 -5 -28 -24 -61 -41 -34 -18
-56 -35 -50 -37 6 -2 33 9 59 25 67 40 114 62 134 63 9 0 29 12 43 27 23 25
23 28 7 35 -28 11 -34 8 -84 -29z"/>
<path d="M7015 6149 c-10 -15 3 -25 16 -12 7 7 7 13 1 17 -6 3 -14 1 -17 -5z"/>
<path d="M6027 6133 c-13 -12 -7 -33 8 -33 8 0 15 9 15 20 0 20 -11 26 -23 13z"/>
<path d="M8611 6126 c-9 -11 -9 -16 0 -21 10 -7 28 10 29 28 0 12 -17 8 -29
-7z"/>
<path d="M2910 6120 c0 -5 5 -10 10 -10 6 0 10 5 10 10 0 6 -4 10 -10 10 -5 0
-10 -4 -10 -10z"/>
<path d="M956 6104 c-10 -26 -7 -44 7 -44 23 0 37 21 26 42 -12 22 -25 23 -33
2z"/>
<path d="M6480 6110 c-8 -5 -12 -11 -9 -14 3 -3 14 1 25 9 21 16 8 20 -16 5z"/>
<path d="M6248 6083 c7 -3 16 -2 19 1 4 3 -2 6 -13 5 -11 0 -14 -3 -6 -6z"/>
<path d="M800 6070 c0 -5 5 -10 10 -10 6 0 10 5 10 10 0 6 -4 10 -10 10 -5 0
-10 -4 -10 -10z"/>
<path d="M2771 6058 c-6 -17 -5 -24 7 -26 17 -5 32 16 25 35 -8 20 -23 16 -32
-9z"/>
<path d="M1130 6055 c14 -16 40 -20 40 -6 0 9 -24 21 -42 21 -6 0 -6 -6 2 -15z"/>
<path d="M6431 6061 c-8 -6 -9 -11 -3 -15 6 -3 14 -1 17 5 9 14 2 20 -14 10z"/>
<path d="M8814 6046 c-15 -12 -17 -17 -6 -27 7 -8 12 -9 12 -2 0 6 9 13 21 16
12 3 18 10 14 16 -8 15 -17 14 -41 -3z"/>
<path d="M285 6020 c-3 -5 1 -10 9 -10 8 0 18 5 21 10 3 6 -1 10 -9 10 -8 0
-18 -4 -21 -10z"/>
<path d="M1190 5980 c0 -5 7 -10 16 -10 8 0 12 5 9 10 -3 6 -10 10 -16 10 -5
0 -9 -4 -9 -10z"/>
<path d="M8587 5914 c-11 -11 5 -34 24 -34 12 0 19 7 19 20 0 19 -28 28 -43
14z"/>
<path d="M8306 5893 c-3 -3 -6 -17 -6 -31 0 -21 2 -22 15 -12 8 7 15 18 15 26
0 15 -15 26 -24 17z"/>
<path d="M246 5882 c-3 -5 4 -23 14 -40 24 -39 61 -50 95 -28 16 10 48 16 92
17 l68 1 -55 13 c-30 7 -72 20 -92 29 -39 17 -113 22 -122 8z"/>
<path d="M652 5877 c-9 -11 -10 -17 -2 -22 15 -9 23 -1 18 21 -3 15 -4 16 -16
1z"/>
<path d="M520 5865 c0 -8 5 -15 10 -15 6 0 10 7 10 15 0 8 -4 15 -10 15 -5 0
-10 -7 -10 -15z"/>
<path d="M820 5872 c0 -5 7 -13 16 -16 10 -4 14 -1 12 6 -5 15 -28 23 -28 10z"/>
<path d="M8237 5874 c-8 -8 1 -24 14 -24 5 0 9 7 9 15 0 15 -12 20 -23 9z"/>
<path d="M8516 5861 c-4 -7 -5 -15 -2 -18 9 -9 19 4 14 18 -4 11 -6 11 -12 0z"/>
<path d="M5096 5792 c-3 -5 1 -9 9 -9 8 0 12 4 9 9 -3 4 -7 8 -9 8 -2 0 -6 -4
-9 -8z"/>
<path d="M830 5755 c0 -8 5 -15 10 -15 6 0 10 7 10 15 0 8 -4 15 -10 15 -5 0
-10 -7 -10 -15z"/>
<path d="M671 5726 c-17 -20 -6 -67 13 -60 20 8 28 47 12 62 -10 11 -15 10
-25 -2z"/>
<path d="M947 5724 c-4 -4 -7 -14 -7 -23 0 -11 3 -12 11 -4 6 6 10 16 7 23 -2
6 -7 8 -11 4z"/>
<path d="M762 5695 c12 -27 28 -34 28 -12 0 14 -20 37 -32 37 -4 0 -2 -11 4
-25z"/>
<path d="M1275 5626 c34 -29 45 -32 45 -12 0 7 -8 16 -17 19 -10 2 -27 8 -38
12 -14 5 -11 -1 10 -19z"/>
<path d="M8793 5630 c-23 -5 -54 -15 -70 -23 -15 -8 -55 -19 -88 -25 -76 -13
-118 -29 -110 -42 3 -5 1 -10 -6 -10 -7 0 -10 -2 -7 -5 2 -3 31 2 64 11 32 8
82 17 109 19 77 5 150 36 158 66 3 11 2 19 -1 18 -4 -1 -26 -5 -49 -9z"/>
<path d="M8420 5514 c0 -8 5 -12 10 -9 6 4 8 11 5 16 -9 14 -15 11 -15 -7z"/>
<path d="M400 5439 c0 -5 5 -7 10 -4 6 3 10 8 10 11 0 2 -4 4 -10 4 -5 0 -10
-5 -10 -11z"/>
<path d="M483 5403 c8 -9 20 -12 26 -9 19 12 12 24 -15 24 -23 0 -24 -2 -11
-15z"/>
<path d="M583 5404 c-7 -18 11 -39 26 -30 17 11 13 46 -4 46 -9 0 -18 -7 -22
-16z"/>
<path d="M420 5379 c0 -5 5 -7 10 -4 6 3 10 8 10 11 0 2 -4 4 -10 4 -5 0 -10
-5 -10 -11z"/>
<path d="M7262 5368 c3 -7 13 -15 22 -16 12 -3 17 1 14 10 -3 7 -13 15 -22 16
-12 3 -17 -1 -14 -10z"/>
<path d="M7336 5365 c-25 -19 -10 -36 22 -24 23 9 31 39 10 39 -7 0 -22 -7
-32 -15z"/>
<path d="M860 5356 c0 -9 5 -16 10 -16 6 0 10 4 10 9 0 6 -4 13 -10 16 -5 3
-10 -1 -10 -9z"/>
<path d="M1463 5350 c-17 -27 -17 -27 15 -26 20 1 27 6 27 21 0 27 -27 30 -42
5z"/>
<path d="M7760 5320 c0 -5 5 -10 10 -10 6 0 10 5 10 10 0 6 -4 10 -10 10 -5 0
-10 -4 -10 -10z"/>
<path d="M7990 5301 c0 -6 5 -13 10 -16 6 -3 10 1 10 9 0 9 -4 16 -10 16 -5 0
-10 -4 -10 -9z"/>
<path d="M760 5288 c1 -15 28 -53 34 -47 2 2 2 16 -1 32 -5 26 -33 39 -33 15z"/>
<path d="M8206 5284 c-8 -21 1 -34 24 -34 25 0 35 17 20 35 -16 20 -36 19 -44
-1z"/>
<path d="M595 5280 c3 -5 10 -10 16 -10 5 0 9 5 9 10 0 6 -7 10 -16 10 -8 0
-12 -4 -9 -10z"/>
<path d="M7840 5260 c0 -17 39 -50 59 -50 11 0 23 -4 26 -10 3 -5 15 -10 26
-10 11 0 17 -4 14 -10 -3 -5 3 -10 15 -10 12 0 18 5 15 10 -3 6 1 10 10 10 9
0 13 5 10 10 -3 6 -15 10 -25 10 -10 0 -25 7 -34 15 -8 8 -23 15 -33 15 -11 0
-28 7 -39 15 -22 17 -44 19 -44 5z"/>
<path d="M8769 5171 c-23 -19 -24 -19 -5 -40 24 -26 60 -27 86 -1 32 32 28 43
-26 54 -23 5 -37 2 -55 -13z"/>
<path d="M8046 5173 c-11 -11 -6 -23 9 -23 8 0 15 4 15 9 0 13 -16 22 -24 14z"/>
<path d="M8197 5154 c-4 -4 -7 -16 -7 -26 0 -16 3 -17 21 -8 11 6 19 16 16 23
-4 14 -21 20 -30 11z"/>
<path d="M1110 5081 c0 -12 6 -21 15 -21 8 0 15 4 15 9 0 5 -7 14 -15 21 -13
10 -15 9 -15 -9z"/>
<path d="M2250 5085 c0 -8 5 -15 10 -15 6 0 10 7 10 15 0 8 -4 15 -10 15 -5 0
-10 -7 -10 -15z"/>
<path d="M916 5051 c-4 -7 -5 -15 -2 -18 9 -9 19 4 14 18 -4 11 -6 11 -12 0z"/>
<path d="M8815 5040 c3 -5 8 -10 11 -10 2 0 4 5 4 10 0 6 -5 10 -11 10 -5 0
-7 -4 -4 -10z"/>
<path d="M570 5014 c0 -17 22 -14 28 4 2 7 -3 12 -12 12 -9 0 -16 -7 -16 -16z"/>
<path d="M8647 5003 c-14 -13 -6 -34 16 -42 25 -10 49 11 40 35 -5 14 -44 19
-56 7z"/>
<path d="M3447 4923 c-4 -3 -7 -11 -7 -17 0 -6 5 -5 12 2 6 6 9 14 7 17 -3 3
-9 2 -12 -2z"/>
<path d="M3485 4920 c-3 -5 1 -10 9 -10 9 0 16 5 16 10 0 6 -4 10 -9 10 -6 0
-13 -4 -16 -10z"/>
<path d="M3510 4885 c-8 -9 -8 -15 -2 -15 12 0 26 19 19 26 -2 2 -10 -2 -17
-11z"/>
<path d="M7660 4880 c0 -11 7 -20 15 -20 13 0 14 4 5 20 -6 11 -13 20 -15 20
-3 0 -5 -9 -5 -20z"/>
<path d="M1160 4864 c0 -16 -4 -23 -11 -18 -7 4 -10 1 -7 -7 7 -22 31 -16 45
11 9 19 9 26 0 32 -21 13 -27 9 -27 -18z"/>
<path d="M6672 4878 c5 -15 28 -23 28 -10 0 5 -7 13 -16 16 -10 4 -14 1 -12
-6z"/>
<path d="M8316 4866 c10 -8 21 -12 24 -10 5 6 -21 24 -34 24 -6 0 -1 -6 10
-14z"/>
<path d="M880 4860 c0 -5 5 -10 10 -10 6 0 10 5 10 10 0 6 -4 10 -10 10 -5 0
-10 -4 -10 -10z"/>
<path d="M6645 4850 c3 -5 10 -10 16 -10 5 0 9 5 9 10 0 6 -7 10 -16 10 -8 0
-12 -4 -9 -10z"/>
<path d="M1034 4840 c-60 -13 -69 -30 -30 -55 17 -12 35 -14 60 -9 32 5 36 9
30 28 -10 34 -26 44 -60 36z"/>
<path d="M6745 4830 c3 -5 8 -10 11 -10 2 0 4 5 4 10 0 6 -5 10 -11 10 -5 0
-7 -4 -4 -10z"/>
<path d="M6835 4810 c3 -5 10 -10 16 -10 5 0 9 5 9 10 0 6 -7 10 -16 10 -8 0
-12 -4 -9 -10z"/>
<path d="M7855 4813 c-28 -7 -35 -16 -25 -33 7 -12 12 -12 34 -1 14 8 27 20
30 27 5 14 -3 16 -39 7z"/>
<path d="M8046 4804 c-9 -23 -2 -28 13 -10 7 8 8 17 3 20 -6 3 -13 -1 -16 -10z"/>
<path d="M7460 4766 c0 -15 18 -31 26 -23 7 7 -7 37 -17 37 -5 0 -9 -6 -9 -14z"/>
<path d="M5880 4740 c0 -5 5 -10 10 -10 6 0 10 5 10 10 0 6 -4 10 -10 10 -5 0
-10 -4 -10 -10z"/>
<path d="M484 4732 c3 -6 1 -12 -6 -14 -17 -6 0 -28 21 -28 9 0 35 9 57 20
l39 19 -35 -1 c-19 -1 -46 2 -59 6 -15 5 -21 5 -17 -2z"/>
<path d="M600 4731 c0 -5 9 -7 20 -4 11 3 20 7 20 9 0 2 -9 4 -20 4 -11 0 -20
-4 -20 -9z"/>
<path d="M6895 4730 c-3 -5 1 -10 9 -10 9 0 16 5 16 10 0 6 -4 10 -9 10 -6 0
-13 -4 -16 -10z"/>
<path d="M7585 4721 c-6 -11 9 -23 19 -14 9 9 7 23 -3 23 -6 0 -12 -4 -16 -9z"/>
<path d="M600 4699 c0 -5 5 -7 10 -4 6 3 10 8 10 11 0 2 -4 4 -10 4 -5 0 -10
-5 -10 -11z"/>
<path d="M1466 4701 c-3 -5 1 -11 9 -15 8 -3 15 -1 15 4 0 13 -18 22 -24 11z"/>
<path d="M1880 4699 c0 -5 5 -7 10 -4 6 3 10 8 10 11 0 2 -4 4 -10 4 -5 0 -10
-5 -10 -11z"/>
<path d="M1195 4675 c-27 -13 -64 -25 -82 -25 -17 0 -35 -4 -38 -10 -3 -5 -15
-10 -25 -10 -20 0 -115 -33 -139 -49 -12 -8 -12 -12 -2 -25 19 -23 37 -20 90
12 25 16 75 38 110 50 59 20 151 67 151 77 0 9 -16 5 -65 -20z"/>
<path d="M2925 4680 c-10 -11 -13 -20 -8 -20 13 0 38 29 31 35 -3 3 -13 -4
-23 -15z"/>
<path d="M7535 4669 c-4 -11 -4 -23 -1 -27 10 -9 39 25 32 37 -11 17 -24 13
-31 -10z"/>
<path d="M1575 4670 c3 -5 10 -10 16 -10 5 0 9 5 9 10 0 6 -7 10 -16 10 -8 0
-12 -4 -9 -10z"/>
<path d="M7007 4633 c-4 -3 -7 -14 -7 -24 0 -12 6 -16 20 -12 22 6 28 43 7 43
-8 0 -17 -3 -20 -7z"/>
<path d="M1200 4619 c0 -5 5 -7 10 -4 6 3 10 8 10 11 0 2 -4 4 -10 4 -5 0 -10
-5 -10 -11z"/>
<path d="M1340 4620 c0 -5 5 -10 10 -10 6 0 10 5 10 10 0 6 -4 10 -10 10 -5 0
-10 -4 -10 -10z"/>
<path d="M6733 4611 c-8 -13 -9 -22 -3 -26 11 -7 24 18 18 35 -2 6 -9 1 -15
-9z"/>
<path d="M2920 4609 c0 -5 5 -7 10 -4 6 3 10 8 10 11 0 2 -4 4 -10 4 -5 0 -10
-5 -10 -11z"/>
<path d="M1397 4594 c-4 -4 -7 -14 -7 -23 0 -11 3 -12 11 -4 6 6 10 16 7 23
-2 6 -7 8 -11 4z"/>
<path d="M7200 4582 c0 -12 19 -26 26 -19 2 2 -2 10 -11 17 -9 8 -15 8 -15 2z"/>
<path d="M1600 4570 c-12 -7 -12 -12 -2 -22 9 -9 15 -9 24 0 8 8 9 15 2 22 -5
5 -15 6 -24 0z"/>
<path d="M5460 4560 c0 -5 5 -10 11 -10 5 0 7 5 4 10 -3 6 -8 10 -11 10 -2 0
-4 -4 -4 -10z"/>
<path d="M6010 4560 c0 -5 5 -10 11 -10 5 0 7 5 4 10 -3 6 -8 10 -11 10 -2 0
-4 -4 -4 -10z"/>
<path d="M2854 4545 c4 -24 16 -30 16 -7 0 12 -4 22 -9 22 -5 0 -8 -7 -7 -15z"/>
<path d="M7158 4553 c7 -3 16 -2 19 1 4 3 -2 6 -13 5 -11 0 -14 -3 -6 -6z"/>
<path d="M2394 4525 c-4 -9 0 -23 9 -32 21 -21 49 -9 45 19 -4 28 -45 38 -54
13z"/>
<path d="M7120 4526 c0 -9 5 -16 10 -16 6 0 10 4 10 9 0 6 -4 13 -10 16 -5 3
-10 -1 -10 -9z"/>
<path d="M5990 4519 c0 -5 5 -7 10 -4 6 3 10 8 10 11 0 2 -4 4 -10 4 -5 0 -10
-5 -10 -11z"/>
<path d="M6872 4516 c1 -10 8 -17 13 -17 15 1 12 24 -3 29 -9 3 -13 -2 -10
-12z"/>
<path d="M1480 4511 c0 -17 18 -21 24 -6 3 9 0 15 -9 15 -8 0 -15 -4 -15 -9z"/>
<path d="M2290 4489 c-219 -174 -226 -178 -265 -172 -27 4 -44 -3 -106 -46
-47 -33 -76 -46 -80 -39 -4 7 -13 -1 -23 -21 -15 -29 -15 -31 0 -31 9 0 33 13
53 29 43 34 94 61 115 61 9 0 -21 -35 -66 -77 -271 -259 -334 -335 -257 -313
17 5 40 22 51 37 12 15 81 89 155 163 73 74 133 137 133 141 0 4 30 29 68 55
67 49 89 66 190 159 30 28 58 52 63 53 11 4 12 22 2 22 -5 -1 -19 -10 -33 -21z"/>
<path d="M1585 4480 c4 -6 11 -8 16 -5 14 9 11 15 -7 15 -8 0 -12 -5 -9 -10z"/>
<path d="M7320 4483 c0 -9 72 -34 79 -27 8 8 -14 22 -46 29 -18 4 -33 3 -33
-2z"/>
<path d="M2770 4451 c-13 -26 -13 -28 6 -35 21 -8 44 11 44 35 0 25 -36 25
-50 0z"/>
<path d="M2465 4449 c-4 -6 -5 -13 -2 -16 7 -7 27 6 27 18 0 12 -17 12 -25 -2z"/>
<path d="M1997 4443 c-12 -11 -8 -21 12 -26 19 -5 41 9 41 25 0 10 -44 11 -53
1z"/>
<path d="M7055 4440 c-3 -5 -1 -10 4 -10 6 0 11 5 11 10 0 6 -2 10 -4 10 -3 0
-8 -4 -11 -10z"/>
<path d="M1785 4430 c-3 -5 -1 -10 4 -10 6 0 11 5 11 10 0 6 -2 10 -4 10 -3 0
-8 -4 -11 -10z"/>
<path d="M2670 4420 c0 -5 5 -10 10 -10 6 0 10 5 10 10 0 6 -4 10 -10 10 -5 0
-10 -4 -10 -10z"/>
<path d="M1311 4394 c0 -11 3 -14 6 -6 3 7 2 16 -1 19 -3 4 -6 -2 -5 -13z"/>
<path d="M7430 4382 c0 -28 25 -56 44 -49 21 8 21 36 -1 53 -25 19 -43 17 -43
-4z"/>
<path d="M2350 4370 c0 -5 5 -10 11 -10 5 0 7 5 4 10 -3 6 -8 10 -11 10 -2 0
-4 -4 -4 -10z"/>
<path d="M2580 4330 c-27 -28 -50 -56 -50 -62 0 -7 5 -7 14 1 8 6 18 10 23 9
14 -4 84 82 77 93 -8 14 -9 13 -64 -41z"/>
<path d="M7110 4369 c0 -5 -5 -7 -11 -3 -8 4 -8 0 0 -15 16 -28 31 -27 31 4 0
14 -4 25 -10 25 -5 0 -10 -5 -10 -11z"/>
<path d="M6631 4362 c-1 -20 35 -69 97 -134 58 -59 85 -113 83 -163 -1 -16 1
-42 5 -58 8 -37 24 -17 24 31 0 30 2 32 28 26 60 -14 224 -146 268 -216 l25
-39 29 18 c17 10 29 22 27 28 -2 5 -42 37 -89 70 -47 33 -104 76 -126 95 -22
19 -58 48 -81 64 -22 16 -52 47 -67 69 -31 48 -163 177 -179 177 -7 0 -20 10
-28 23 -9 13 -16 16 -16 9z"/>
<path d="M1665 4325 c-108 -60 -141 -79 -155 -86 -26 -12 -105 -34 -114 -31
-16 5 -46 -31 -46 -55 0 -33 24 -39 59 -14 16 12 32 21 36 21 15 0 140 84 153
102 8 10 38 33 68 49 50 29 65 40 47 38 -5 -1 -26 -11 -48 -24z"/>
<path d="M7560 4340 c0 -5 5 -10 10 -10 6 0 10 5 10 10 0 6 -4 10 -10 10 -5 0
-10 -4 -10 -10z"/>
<path d="M5600 4325 c0 -8 7 -15 16 -15 14 0 14 3 4 15 -7 8 -14 15 -16 15 -2
0 -4 -7 -4 -15z"/>
<path d="M7085 4310 c3 -5 10 -10 16 -10 5 0 9 5 9 10 0 6 -7 10 -16 10 -8 0
-12 -4 -9 -10z"/>
<path d="M2640 4275 c0 -8 5 -15 10 -15 6 0 10 7 10 15 0 8 -4 15 -10 15 -5 0
-10 -7 -10 -15z"/>
<path d="M6362 4271 c-15 -9 -6 -61 10 -61 6 0 8 7 4 15 -3 9 0 15 10 15 9 0
14 7 12 17 -4 20 -18 26 -36 14z"/>
<path d="M7230 4265 c0 -18 24 -30 39 -21 16 10 1 36 -20 36 -10 0 -19 -7 -19
-15z"/>
<path d="M4015 4260 c-8 -13 15 -24 27 -12 6 6 4 11 -6 15 -8 3 -18 2 -21 -3z"/>
<path d="M2287 4253 c-11 -10 -8 -43 3 -43 9 0 30 31 30 44 0 8 -25 7 -33 -1z"/>
<path d="M6457 4253 c-4 -3 -7 -13 -7 -21 0 -12 3 -12 15 -2 8 7 15 16 15 21
0 11 -14 12 -23 2z"/>
<path d="M6195 4240 c-19 -8 -19 -9 3 -9 12 -1 24 -1 27 -1 9 0 7 14 -2 17 -4
1 -17 -2 -28 -7z"/>
<path d="M7145 4241 c-3 -6 3 -14 12 -20 10 -6 14 -11 9 -11 -14 0 15 -30 30
-30 21 0 17 24 -9 48 -26 24 -33 26 -42 13z"/>
<path d="M5337 4216 c-6 -16 16 -40 26 -29 4 3 7 1 7 -5 0 -6 7 -9 15 -6 11 5
9 11 -10 30 -28 28 -31 29 -38 10z"/>
<path d="M5623 4204 c-8 -21 13 -42 28 -27 13 13 5 43 -11 43 -6 0 -13 -7 -17
-16z"/>
<path d="M4010 4200 c0 -5 5 -10 11 -10 5 0 7 5 4 10 -3 6 -8 10 -11 10 -2 0
-4 -4 -4 -10z"/>
<path d="M5180 4200 c0 -5 5 -10 10 -10 6 0 10 5 10 10 0 6 -4 10 -10 10 -5 0
-10 -4 -10 -10z"/>
<path d="M5427 4198 c-21 -11 -22 -44 -1 -52 26 -10 36 -7 31 9 -4 8 -2 17 3
20 27 17 -5 39 -33 23z"/>
<path d="M3770 4190 c0 -5 5 -10 10 -10 6 0 10 5 10 10 0 6 -4 10 -10 10 -5 0
-10 -4 -10 -10z"/>
<path d="M4047 4193 c-7 -11 10 -40 18 -31 4 4 3 14 -3 24 -5 9 -12 12 -15 7z"/>
<path d="M6366 4184 c-9 -23 -8 -24 12 -23 9 0 12 3 5 5 -7 3 -9 12 -6 20 3 8
3 14 0 14 -3 0 -8 -7 -11 -16z"/>
<path d="M2492 4168 c-14 -14 -16 -38 -3 -38 8 0 23 41 17 47 -1 1 -8 -3 -14
-9z"/>
<path d="M6482 4173 c-9 -3 -5 -14 14 -36 14 -17 30 -42 35 -55 18 -48 98
-160 132 -186 19 -15 45 -48 57 -74 41 -88 61 -114 76 -101 8 6 14 22 14 35 0
31 -58 134 -73 131 -6 -1 -31 27 -54 63 -24 36 -66 91 -94 123 -32 37 -45 57
-35 57 9 0 16 5 16 10 0 6 -9 10 -19 10 -11 0 -26 7 -35 15 -8 8 -16 15 -18
14 -2 0 -9 -3 -16 -6z"/>
<path d="M2095 4125 c-91 -81 -105 -97 -105 -121 0 -13 5 -24 11 -24 24 0 69
35 69 54 0 10 20 41 45 67 42 45 55 69 38 69 -5 0 -30 -21 -58 -45z"/>
<path d="M6670 4134 c0 -8 5 -12 10 -9 6 3 10 10 10 16 0 5 -4 9 -10 9 -5 0
-10 -7 -10 -16z"/>
<path d="M7306 4134 c-9 -22 -8 -24 9 -24 8 0 15 9 15 20 0 24 -15 27 -24 4z"/>
<path d="M2976 4114 c-4 -9 -4 -19 -1 -22 2 -3 7 3 11 12 4 9 4 19 1 22 -2 3
-7 -3 -11 -12z"/>
<path d="M6938 4123 c7 -3 16 -2 19 1 4 3 -2 6 -13 5 -11 0 -14 -3 -6 -6z"/>
<path d="M1770 4105 c-8 -9 -8 -15 -2 -15 12 0 26 19 19 26 -2 2 -10 -2 -17
-11z"/>
<path d="M5435 4097 c-8 -19 -2 -31 13 -26 5 2 6 13 2 24 -7 19 -8 19 -15 2z"/>
<path d="M6000 4106 c0 -4 11 -24 25 -44 14 -20 25 -32 25 -26 0 5 -11 25 -25
44 -14 19 -25 31 -25 26z"/>
<path d="M7020 4100 c0 -5 5 -10 10 -10 6 0 10 5 10 10 0 6 -4 10 -10 10 -5 0
-10 -4 -10 -10z"/>
<path d="M3736 4034 c-29 -66 -35 -72 -143 -141 -43 -28 -67 -67 -61 -100 5
-25 46 -29 63 -6 13 17 14 16 15 -9 0 -14 3 -33 6 -41 3 -8 -4 -24 -16 -35
-26 -24 -23 -57 5 -57 15 0 21 8 23 30 2 18 18 45 39 67 32 33 35 41 30 77 -3
28 -1 44 9 52 8 6 22 28 31 48 9 20 20 38 23 41 4 3 7 12 7 20 0 30 24 100 34
100 6 0 7 5 4 10 -17 27 -42 7 -69 -56z"/>
<path d="M6620 4085 c0 -8 7 -15 16 -15 14 0 14 3 4 15 -7 8 -14 15 -16 15 -2
0 -4 -7 -4 -15z"/>
<path d="M3997 4083 c-3 -4 0 -19 5 -33 9 -24 10 -25 24 -5 8 10 13 24 11 30
-5 13 -34 19 -40 8z"/>
<path d="M7420 4051 c0 -22 14 -44 58 -90 32 -34 62 -61 68 -61 6 0 19 9 29
20 18 20 18 21 -34 70 -28 27 -65 52 -81 55 -17 4 -28 10 -25 15 3 5 1 11 -5
15 -6 4 -10 -6 -10 -24z"/>
<path d="M4090 4050 c6 -11 12 -20 14 -20 2 0 6 9 9 20 4 15 0 20 -14 20 -17
0 -18 -3 -9 -20z"/>
<path d="M5242 4039 c2 -7 10 -15 17 -17 8 -3 12 1 9 9 -2 7 -10 15 -17 17 -8
3 -12 -1 -9 -9z"/>
<path d="M6380 4041 c0 -5 5 -13 10 -16 6 -3 10 -2 10 4 0 5 -4 13 -10 16 -5
3 -10 2 -10 -4z"/>
<path d="M7142 4043 c0 -5 -2 -16 -7 -26 -4 -10 -4 -21 0 -25 4 -4 10 -1 12 6
3 6 11 12 19 12 12 0 12 4 2 20 -12 19 -30 28 -26 13z"/>
<path d="M3319 4040 c-5 -28 -4 -50 2 -50 13 0 20 33 9 44 -5 5 -10 8 -11 6z"/>
<path d="M5276 4018 c-18 -25 -20 -38 -8 -38 10 0 35 50 28 57 -2 2 -11 -6
-20 -19z"/>
<path d="M6457 4034 c-8 -8 3 -34 14 -34 11 0 12 27 0 34 -4 3 -11 3 -14 0z"/>
<path d="M2330 4020 c0 -5 5 -10 11 -10 5 0 7 5 4 10 -3 6 -8 10 -11 10 -2 0
-4 -4 -4 -10z"/>
<path d="M2580 4021 c0 -5 -24 -21 -54 -35 -43 -21 -56 -33 -61 -56 -7 -31 8
-70 28 -70 39 1 57 15 73 59 10 25 21 50 26 56 11 13 10 55 -2 55 -5 0 -10 -4
-10 -9z"/>
<path d="M3870 4020 c0 -5 5 -10 11 -10 5 0 7 5 4 10 -3 6 -8 10 -11 10 -2 0
-4 -4 -4 -10z"/>
<path d="M5530 4016 c0 -18 17 -29 30 -21 8 5 7 11 -1 21 -15 18 -29 18 -29 0z"/>
<path d="M2840 4000 c-9 -16 -8 -18 5 -14 8 4 15 12 15 20 0 20 -7 17 -20 -6z"/>
<path d="M5370 3999 c0 -5 5 -7 10 -4 6 3 10 8 10 11 0 2 -4 4 -10 4 -5 0 -10
-5 -10 -11z"/>
<path d="M6117 3989 c12 -12 25 -20 28 -17 3 3 -7 13 -22 23 l-28 17 22 -23z"/>
<path d="M3822 3983 c5 -25 28 -28 28 -4 0 12 -6 21 -16 21 -9 0 -14 -7 -12
-17z"/>
<path d="M5303 3975 c-3 -9 -3 -19 1 -22 7 -7 36 16 36 28 0 15 -30 10 -37 -6z"/>
<path d="M5467 3983 c-4 -3 -7 -11 -7 -17 0 -6 5 -5 12 2 6 6 9 14 7 17 -3 3
-9 2 -12 -2z"/>
<path d="M3944 3954 c6 -25 2 -34 -23 -57 -27 -24 -29 -29 -20 -57 14 -39 27
-37 68 12 31 35 33 42 22 60 -10 17 -9 23 6 41 18 20 18 20 -6 14 -14 -3 -31
-1 -39 6 -12 10 -14 7 -8 -19z"/>
<path d="M2925 3937 c-16 -21 -47 -47 -67 -58 -21 -11 -38 -23 -38 -28 0 -9
75 -6 91 4 5 4 9 -4 9 -17 l0 -22 21 20 c17 17 20 31 17 80 l-3 59 -30 -38z"/>
<path d="M2995 3959 c-12 -19 5 -23 22 -6 16 16 16 17 1 17 -9 0 -20 -5 -23
-11z"/>
<path d="M3227 3955 c-13 -9 -15 -15 -7 -20 14 -8 34 9 29 23 -3 7 -11 6 -22
-3z"/>
<path d="M5458 3937 c-44 -39 -57 -77 -33 -97 14 -12 21 -11 43 2 39 24 51 63
26 84 -10 8 -12 12 -4 8 44 -21 47 -30 32 -94 -14 -56 -14 -62 3 -80 23 -25
36 -25 69 1 l26 20 -26 45 c-23 39 -25 49 -15 71 9 19 9 29 -1 40 -10 13 -13
13 -24 -2 -10 -14 -15 -14 -33 -3 -11 7 -22 18 -23 25 -2 8 -17 1 -40 -20z"/>
<path d="M6796 3955 c-9 -26 -7 -32 5 -12 6 10 9 21 6 23 -2 3 -7 -2 -11 -11z"/>
<path d="M6276 3950 c4 -8 30 -46 57 -84 27 -38 54 -83 60 -100 21 -63 110
-186 134 -186 34 0 4 70 -75 177 -43 59 -191 220 -176 193z"/>
<path d="M3835 3930 c3 -5 10 -10 16 -10 5 0 9 5 9 10 0 6 -7 10 -16 10 -8 0
-12 -4 -9 -10z"/>
<path d="M2350 3916 c0 -9 5 -16 10 -16 6 0 10 4 10 9 0 6 -4 13 -10 16 -5 3
-10 -1 -10 -9z"/>
<path d="M4080 3920 c0 -5 7 -10 16 -10 8 0 12 5 9 10 -3 6 -10 10 -16 10 -5
0 -9 -4 -9 -10z"/>
<path d="M5855 3920 c-3 -6 1 -13 10 -16 19 -8 30 0 20 15 -8 14 -22 14 -30 1z"/>
<path d="M3187 3896 c-15 -14 -27 -29 -27 -35 0 -5 -12 -23 -26 -40 -27 -32
-29 -66 -4 -66 8 0 23 25 36 63 12 35 30 69 40 77 11 7 16 16 13 19 -3 4 -18
-5 -32 -18z"/>
<path d="M2191 3894 c0 -11 3 -14 6 -6 3 7 2 16 -1 19 -3 4 -6 -2 -5 -13z"/>
<path d="M3375 3863 c-20 -27 -40 -47 -43 -47 -40 8 -142 -107 -142 -160 0 -9
14 -25 30 -38 33 -24 36 -38 18 -67 -15 -24 5 -53 29 -44 11 5 14 15 9 44 -4
28 -2 40 9 46 18 10 95 166 95 193 0 29 32 90 47 90 7 0 13 7 13 15 0 29 -30
14 -65 -32z"/>
<path d="M5305 3890 c-9 -14 28 -28 50 -20 18 7 18 8 3 14 -41 14 -48 15 -53
6z"/>
<path d="M3805 3880 c3 -5 8 -10 11 -10 2 0 4 5 4 10 0 6 -5 10 -11 10 -5 0
-7 -4 -4 -10z"/>
<path d="M5380 3880 c0 -5 5 -10 10 -10 6 0 10 5 10 10 0 6 -4 10 -10 10 -5 0
-10 -4 -10 -10z"/>
<path d="M3290 3865 c-10 -12 -10 -15 4 -15 9 0 16 7 16 15 0 8 -2 15 -4 15
-2 0 -9 -7 -16 -15z"/>
<path d="M3730 3871 c0 -5 5 -13 10 -16 6 -3 10 -2 10 4 0 5 -4 13 -10 16 -5
3 -10 2 -10 -4z"/>
<path d="M6970 3860 c0 -5 5 -10 10 -10 6 0 10 5 10 10 0 6 -4 10 -10 10 -5 0
-10 -4 -10 -10z"/>
<path d="M6398 3853 c7 -3 16 -2 19 1 4 3 -2 6 -13 5 -11 0 -14 -3 -6 -6z"/>
<path d="M5736 3832 c-3 -6 -2 -13 4 -17 5 -3 10 -15 10 -25 0 -45 69 -69 90
-30 17 32 -4 60 -43 60 -18 0 -38 5 -44 11 -7 7 -13 7 -17 1z"/>
<path d="M3778 3786 c-22 -30 -23 -65 -3 -72 8 -4 15 -17 15 -30 0 -13 5 -24
10 -24 6 0 10 6 10 13 0 6 16 25 35 42 52 44 44 78 -21 90 -23 4 -33 0 -46
-19z"/>
<path d="M5670 3800 c0 -5 5 -10 10 -10 6 0 10 5 10 10 0 6 -4 10 -10 10 -5 0
-10 -4 -10 -10z"/>
<path d="M6896 3801 c-4 -7 -5 -15 -2 -18 9 -9 19 4 14 18 -4 11 -6 11 -12 0z"/>
<path d="M5400 3790 c0 -5 5 -10 10 -10 6 0 10 5 10 10 0 6 -4 10 -10 10 -5 0
-10 -4 -10 -10z"/>
<path d="M3947 3783 c-4 -6 -4 -19 0 -29 4 -11 3 -15 -5 -10 -6 3 -13 3 -16
-2 -2 -4 4 -8 14 -9 25 -2 32 10 22 38 -5 13 -11 18 -15 12z"/>
<path d="M6115 3780 c3 -5 8 -10 11 -10 2 0 4 5 4 10 0 6 -5 10 -11 10 -5 0
-7 -4 -4 -10z"/>
<path d="M6146 3774 c-9 -24 -7 -28 9 -14 17 14 20 30 6 30 -5 0 -12 -7 -15
-16z"/>
<path d="M2272 3758 c-23 -14 -30 -24 -23 -31 6 -6 12 -9 13 -6 2 2 14 16 27
32 29 32 27 32 -17 5z"/>
<path d="M2745 3763 c2 -10 4 -27 5 -38 1 -16 4 -14 15 10 14 32 11 45 -10 45
-7 0 -12 -8 -10 -17z"/>
<path d="M3720 3770 c0 -5 5 -10 10 -10 6 0 10 5 10 10 0 6 -4 10 -10 10 -5 0
-10 -4 -10 -10z"/>
<path d="M6302 3762 c4 -19 29 -23 35 -6 2 6 -6 14 -17 17 -16 4 -20 1 -18
-11z"/>
<path d="M6600 3771 c0 -13 29 -35 37 -28 7 8 -15 37 -28 37 -5 0 -9 -4 -9 -9z"/>
<path d="M2860 3760 c0 -5 5 -10 10 -10 6 0 10 5 10 10 0 6 -4 10 -10 10 -5 0
-10 -4 -10 -10z"/>
<path d="M3455 3739 c-11 -17 1 -21 15 -4 8 9 8 15 2 15 -6 0 -14 -5 -17 -11z"/>
<path d="M5945 3690 c-16 -7 -17 -9 -3 -9 9 -1 20 4 23 9 7 11 7 11 -20 0z"/>
<path d="M6231 3646 c-9 -10 -9 -16 -1 -21 17 -10 37 12 24 25 -8 8 -15 6 -23
-4z"/>
<path d="M5730 3635 c-10 -12 -10 -19 -2 -27 15 -15 48 14 38 31 -10 15 -21
14 -36 -4z"/>
<path d="M5595 3630 c3 -5 13 -10 21 -10 8 0 12 5 9 10 -3 6 -13 10 -21 10 -8
0 -12 -4 -9 -10z"/>
<path d="M3690 3620 c0 -5 5 -10 10 -10 6 0 10 5 10 10 0 6 -4 10 -10 10 -5 0
-10 -4 -10 -10z"/>
<path d="M3365 3610 c-4 -6 -3 -16 3 -22 6 -6 12 -6 17 2 4 6 3 16 -3 22 -6 6
-12 6 -17 -2z"/>
<path d="M3466 3604 c-20 -19 -20 -34 -1 -34 18 0 39 36 26 44 -5 4 -17 -1
-25 -10z"/>
<path d="M5460 3611 c0 -6 5 -13 10 -16 6 -3 10 1 10 9 0 9 -4 16 -10 16 -5 0
-10 -4 -10 -9z"/>
<path d="M6730 3600 c12 -22 30 -18 30 6 0 8 -9 14 -20 14 -18 0 -19 -3 -10
-20z"/>
<path d="M5955 3600 c-3 -5 -1 -10 4 -10 6 0 11 5 11 10 0 6 -2 10 -4 10 -3 0
-8 -4 -11 -10z"/>
<path d="M5850 3537 c-27 -57 -25 -82 7 -112 37 -34 44 -33 103 14 81 65 77
59 56 76 -11 8 -32 15 -47 15 -15 0 -30 4 -34 9 -3 6 -19 17 -36 25 l-30 15
-19 -42z"/>
<path d="M5406 3563 c-12 -12 -6 -33 9 -33 8 0 15 6 15 14 0 17 -14 28 -24 19z"/>
<path d="M2987 3535 c-8 -18 11 -31 25 -17 11 11 3 32 -12 32 -4 0 -10 -7 -13
-15z"/>
<path d="M3170 3530 c0 -5 5 -10 10 -10 6 0 10 5 10 10 0 6 -4 10 -10 10 -5 0
-10 -4 -10 -10z"/>
<path d="M6407 3533 c-4 -3 -7 -11 -7 -17 0 -6 5 -5 12 2 6 6 9 14 7 17 -3 3
-9 2 -12 -2z"/>
<path d="M5767 3512 c-22 -24 -22 -27 8 -30 26 -2 28 2 16 31 -6 18 -7 18 -24
-1z"/>
<path d="M6600 3496 c0 -22 18 -39 34 -33 25 10 19 34 -9 39 -15 3 -25 1 -25
-6z"/>
<path d="M3710 3490 c0 -5 5 -10 10 -10 6 0 10 5 10 10 0 6 -4 10 -10 10 -5 0
-10 -4 -10 -10z"/>
<path d="M5632 3468 c7 -19 38 -22 38 -4 0 10 -9 16 -21 16 -12 0 -19 -5 -17
-12z"/>
<path d="M5810 3446 c0 -9 5 -16 10 -16 6 0 10 4 10 9 0 6 -4 13 -10 16 -5 3
-10 -1 -10 -9z"/>
<path d="M3830 3430 c0 -5 5 -10 10 -10 6 0 10 5 10 10 0 6 -4 10 -10 10 -5 0
-10 -4 -10 -10z"/>
<path d="M3745 3420 c3 -5 11 -10 16 -10 6 0 7 5 4 10 -3 6 -11 10 -16 10 -6
0 -7 -4 -4 -10z"/>
<path d="M5700 3420 c0 -5 5 -10 11 -10 5 0 7 5 4 10 -3 6 -8 10 -11 10 -2 0
-4 -4 -4 -10z"/>
<path d="M3560 3395 c0 -10 7 -15 18 -13 21 4 19 22 -2 26 -10 2 -16 -3 -16
-13z"/>
<path d="M6185 3399 c-4 -6 -4 -13 -1 -16 8 -8 36 5 36 17 0 13 -27 13 -35 -1z"/>
<path d="M5610 3390 c0 -5 5 -10 11 -10 5 0 7 5 4 10 -3 6 -8 10 -11 10 -2 0
-4 -4 -4 -10z"/>
<path d="M3630 3335 c-10 -12 -10 -15 4 -15 9 0 16 7 16 15 0 8 -2 15 -4 15
-2 0 -9 -7 -16 -15z"/>
<path d="M5855 3340 c-4 -6 3 -10 14 -10 25 0 27 6 6 13 -8 4 -17 2 -20 -3z"/>
<path d="M5990 3260 c0 -5 7 -10 15 -10 8 0 15 5 15 10 0 6 -7 10 -15 10 -8 0
-15 -4 -15 -10z"/>
<path d="M3926 3253 c-11 -11 -6 -23 9 -23 8 0 15 4 15 9 0 13 -16 22 -24 14z"/>
<path d="M5515 3230 c3 -5 8 -10 11 -10 2 0 4 5 4 10 0 6 -5 10 -11 10 -5 0
-7 -4 -4 -10z"/>
<path d="M5912 3228 c7 -19 38 -22 38 -4 0 10 -9 16 -21 16 -12 0 -19 -5 -17
-12z"/>
<path d="M3443 3215 c-3 -9 -3 -18 0 -21 9 -9 27 6 27 22 0 19 -19 18 -27 -1z"/>
<path d="M5530 3180 c0 -5 5 -10 11 -10 5 0 7 5 4 10 -3 6 -8 10 -11 10 -2 0
-4 -4 -4 -10z"/>
<path d="M3560 3172 c0 -12 19 -26 26 -19 2 2 -2 10 -11 17 -9 8 -15 8 -15 2z"/>
<path d="M5340 3156 c0 -8 5 -18 10 -21 6 -3 10 3 10 14 0 12 -4 21 -10 21 -5
0 -10 -6 -10 -14z"/>
<path d="M5780 3159 c0 -5 5 -7 10 -4 6 3 10 8 10 11 0 2 -4 4 -10 4 -5 0 -10
-5 -10 -11z"/>
<path d="M5866 3137 c-16 -12 -16 -14 -2 -26 17 -14 36 -7 36 14 0 21 -15 26
-34 12z"/>
<path d="M5976 3131 c-4 -7 -5 -15 -2 -18 9 -9 19 4 14 18 -4 11 -6 11 -12 0z"/>
<path d="M3560 3064 c0 -8 5 -12 10 -9 6 3 10 10 10 16 0 5 -4 9 -10 9 -5 0
-10 -7 -10 -16z"/>
<path d="M8250 3020 c0 -5 5 -10 10 -10 6 0 10 5 10 10 0 6 -4 10 -10 10 -5 0
-10 -4 -10 -10z"/>
<path d="M3584 2998 c-6 -20 15 -48 38 -48 12 0 9 45 -4 58 -17 17 -26 15 -34
-10z"/>
<path d="M5835 3000 c3 -5 10 -10 16 -10 5 0 9 5 9 10 0 6 -7 10 -16 10 -8 0
-12 -4 -9 -10z"/>
<path d="M3680 2914 c0 -8 5 -12 10 -9 6 3 10 10 10 16 0 5 -4 9 -10 9 -5 0
-10 -7 -10 -16z"/>
<path d="M3860 2919 c0 -5 5 -7 10 -4 6 3 10 8 10 11 0 2 -4 4 -10 4 -5 0 -10
-5 -10 -11z"/>
<path d="M5760 2911 c0 -14 18 -23 31 -15 8 4 7 9 -2 15 -18 11 -29 11 -29 0z"/>
<path d="M5887 2877 c-3 -8 -1 -20 4 -28 11 -19 32 2 23 24 -7 20 -20 22 -27
4z"/>
<path d="M3800 2870 c-13 -9 -12 -13 7 -29 12 -10 19 -21 16 -25 -4 -3 -2 -6
3 -6 9 0 44 51 44 64 0 10 -54 6 -70 -4z"/>
<path d="M5522 2847 c-12 -6 -21 -15 -21 -21 1 -6 0 -18 -4 -26 -3 -8 -8 -28
-12 -45 -6 -29 -7 -29 -21 -11 -7 11 -15 18 -18 15 -2 -2 -6 -39 -9 -81 -6
-90 5 -118 41 -99 12 6 22 21 22 32 0 11 9 37 20 58 18 37 18 39 1 55 -12 11
-16 26 -13 46 5 33 13 37 32 15 17 -21 25 -19 44 9 15 24 15 26 -12 44 -21 15
-32 17 -50 9z"/>
<path d="M3747 2843 c-10 -9 -9 -23 2 -23 5 0 11 7 15 15 5 15 -5 20 -17 8z"/>
<path d="M5455 2820 c-3 -5 -1 -10 4 -10 6 0 11 5 11 10 0 6 -2 10 -4 10 -3 0
-8 -4 -11 -10z"/>
<path d="M3660 2805 c-10 -12 -10 -18 0 -30 26 -32 60 -10 38 25 -15 24 -22
25 -38 5z"/>
<path d="M5393 2813 c-18 -6 -16 -33 1 -33 19 0 31 19 20 30 -5 4 -15 5 -21 3z"/>
<path d="M3964 2749 c-3 -6 -1 -16 5 -22 9 -9 14 -8 21 3 9 15 4 30 -10 30 -5
0 -12 -5 -16 -11z"/>
<path d="M5655 2740 c3 -5 10 -10 16 -10 5 0 9 5 9 10 0 6 -7 10 -16 10 -8 0
-12 -4 -9 -10z"/>
<path d="M3600 2720 c0 -5 5 -10 10 -10 6 0 10 5 10 10 0 6 -4 10 -10 10 -5 0
-10 -4 -10 -10z"/>
<path d="M5770 2720 c0 -5 5 -10 10 -10 6 0 10 5 10 10 0 6 -4 10 -10 10 -5 0
-10 -4 -10 -10z"/>
<path d="M3755 2700 c-3 -5 1 -10 10 -10 9 0 13 5 10 10 -3 6 -8 10 -10 10 -2
0 -7 -4 -10 -10z"/>
<path d="M5326 2701 c-3 -4 1 -17 9 -27 14 -18 14 -18 15 9 0 26 -13 36 -24
18z"/>
<path d="M3736 2672 c-3 -6 -1 -14 5 -17 15 -10 25 3 12 16 -7 7 -13 7 -17 1z"/>
<path d="M3823 2634 c-6 -17 15 -37 29 -28 13 9 9 32 -7 38 -9 3 -18 -1 -22
-10z"/>
<path d="M3943 2634 c-4 -11 1 -22 12 -30 38 -28 70 -7 39 27 -21 23 -42 25
-51 3z"/>
<path d="M5637 2643 c-12 -11 -7 -33 7 -33 7 0 19 6 25 14 9 11 8 15 -5 20
-19 7 -19 7 -27 -1z"/>
<path d="M5330 2630 c0 -5 5 -10 11 -10 5 0 7 5 4 10 -3 6 -8 10 -11 10 -2 0
-4 -4 -4 -10z"/>
<path d="M4120 2620 c0 -5 5 -10 10 -10 6 0 10 5 10 10 0 6 -4 10 -10 10 -5 0
-10 -4 -10 -10z"/>
<path d="M5545 2620 c-3 -5 -1 -10 4 -10 6 0 11 5 11 10 0 6 -2 10 -4 10 -3 0
-8 -4 -11 -10z"/>
<path d="M3652 2588 c-17 -17 -15 -45 3 -52 9 -3 21 4 32 20 14 22 14 27 2 35
-19 12 -23 11 -37 -3z"/>
<path d="M5027 2573 c-4 -3 -7 -11 -7 -17 0 -6 5 -5 12 2 6 6 9 14 7 17 -3 3
-9 2 -12 -2z"/>
<path d="M5700 2550 c0 -5 7 -10 16 -10 8 0 12 5 9 10 -3 6 -10 10 -16 10 -5
0 -9 -4 -9 -10z"/>
<path d="M5670 2530 c-6 -12 -9 -24 -7 -27 3 -2 11 5 17 17 6 12 9 24 7 27 -3
2 -11 -5 -17 -17z"/>
<path d="M5058 2493 c-5 -40 11 -73 36 -73 36 0 51 18 47 57 -2 20 -32 43 -56
43 -18 0 -24 -6 -27 -27z"/>
<path d="M5354 2509 c-7 -12 12 -29 34 -29 19 0 14 18 -7 30 -14 7 -22 7 -27
-1z"/>
<path d="M4052 2499 c2 -7 10 -15 17 -17 8 -3 12 1 9 9 -2 7 -10 15 -17 17 -8
3 -12 -1 -9 -9z"/>
<path d="M5190 2481 c0 -24 18 -37 31 -24 13 13 1 43 -17 43 -8 0 -14 -9 -14
-19z"/>
<path d="M3585 2469 c-4 -6 -1 -15 6 -20 21 -13 31 -11 27 8 -4 20 -24 28 -33
12z"/>
<path d="M4980 2460 c0 -5 5 -10 11 -10 5 0 7 5 4 10 -3 6 -8 10 -11 10 -2 0
-4 -4 -4 -10z"/>
<path d="M5390 2450 c0 -5 5 -10 10 -10 6 0 10 5 10 10 0 6 -4 10 -10 10 -5 0
-10 -4 -10 -10z"/>
<path d="M4319 2428 c-32 -53 -52 -99 -45 -105 11 -12 41 13 41 33 1 11 7 34
14 52 16 39 9 52 -10 20z"/>
<path d="M5503 2435 c-15 -11 -16 -16 -5 -27 13 -13 42 -2 49 19 6 17 -24 23
-44 8z"/>
<path d="M3920 2416 c0 -9 7 -16 16 -16 17 0 14 22 -4 28 -7 2 -12 -3 -12 -12z"/>
<path d="M5650 2420 c0 -5 5 -10 10 -10 6 0 10 5 10 10 0 6 -4 10 -10 10 -5 0
-10 -4 -10 -10z"/>
<path d="M5698 2413 c7 -3 16 -2 19 1 4 3 -2 6 -13 5 -11 0 -14 -3 -6 -6z"/>
<path d="M4994 2355 c1 -30 5 -57 8 -61 3 -3 15 7 26 21 22 28 20 55 -4 55 -8
0 -14 6 -14 14 0 8 -4 18 -10 21 -6 3 -8 -16 -6 -50z"/>
<path d="M5200 2389 c0 -5 5 -7 10 -4 6 3 10 8 10 11 0 2 -4 4 -10 4 -5 0 -10
-5 -10 -11z"/>
<path d="M5127 2373 c-14 -13 -6 -33 13 -33 13 0 20 7 20 20 0 19 -20 27 -33
13z"/>
<path d="M5622 2368 c5 -15 28 -23 28 -10 0 5 -7 13 -16 16 -10 4 -14 1 -12
-6z"/>
<path d="M3898 2346 c-6 -14 -8 -32 -5 -40 10 -25 46 -19 59 10 11 22 10 28
-7 40 -26 19 -34 18 -47 -10z"/>
<path d="M3975 2360 c-3 -5 -1 -10 4 -10 6 0 11 5 11 10 0 6 -2 10 -4 10 -3 0
-8 -4 -11 -10z"/>
<path d="M5280 2354 c0 -9 5 -14 12 -12 18 6 21 28 4 28 -9 0 -16 -7 -16 -16z"/>
<path d="M5349 2331 c-24 -19 -24 -20 -6 -49 9 -17 17 -37 17 -46 0 -22 17
-20 30 3 17 33 10 111 -10 111 -4 0 -18 -9 -31 -19z"/>
<path d="M4474 2325 c-9 -21 3 -45 21 -45 21 0 30 27 15 45 -16 19 -29 19 -36
0z"/>
<path d="M4325 2320 c3 -5 8 -10 11 -10 2 0 4 5 4 10 0 6 -5 10 -11 10 -5 0
-7 -4 -4 -10z"/>
<path d="M4828 2324 c-5 -4 -8 -18 -8 -30 0 -13 -4 -25 -8 -28 -13 -8 -1 -66
13 -66 14 0 30 29 25 45 -2 6 -6 27 -9 48 -3 22 -9 35 -13 31z"/>
<path d="M5055 2310 c-3 -5 -1 -10 4 -10 6 0 11 5 11 10 0 6 -2 10 -4 10 -3 0
-8 -4 -11 -10z"/>
<path d="M3968 2273 c7 -3 16 -2 19 1 4 3 -2 6 -13 5 -11 0 -14 -3 -6 -6z"/>
<path d="M4290 2261 c0 -5 7 -11 15 -15 9 -3 15 0 15 9 0 8 -7 15 -15 15 -8 0
-15 -4 -15 -9z"/>
<path d="M4410 2251 c0 -15 6 -21 21 -21 14 0 19 5 17 17 -5 26 -38 29 -38 4z"/>
<path d="M3800 2250 c0 -5 4 -10 9 -10 6 0 13 5 16 10 3 6 -1 10 -9 10 -9 0
-16 -4 -16 -10z"/>
<path d="M5155 2240 c14 -16 20 -17 27 -8 13 22 9 28 -19 28 -26 0 -26 0 -8
-20z"/>
<path d="M5505 2250 c-9 -15 4 -30 26 -30 12 0 19 7 19 20 0 21 -33 29 -45 10z"/>
<path d="M5017 2227 c-37 -31 -24 -67 25 -67 22 0 28 4 28 23 0 31 -34 59 -53
44z"/>
<path d="M3870 2220 c0 -5 5 -10 10 -10 6 0 10 5 10 10 0 6 -4 10 -10 10 -5 0
-10 -4 -10 -10z"/>
<path d="M4130 2210 c0 -5 7 -10 15 -10 8 0 15 5 15 10 0 6 -7 10 -15 10 -8 0
-15 -4 -15 -10z"/>
<path d="M4230 2186 c-18 -23 -8 -61 17 -64 26 -4 50 35 40 62 -8 20 -41 21
-57 2z"/>
<path d="M5204 2191 c-2 -2 -4 -8 -4 -13 0 -14 37 -9 50 7 11 13 8 15 -14 13
-15 -1 -29 -4 -32 -7z"/>
<path d="M4014 2175 c-9 -21 -2 -26 13 -10 8 9 9 16 3 20 -6 3 -13 -1 -16 -10z"/>
<path d="M4367 2174 c-16 -16 -7 -44 14 -44 15 0 20 5 17 22 -3 22 -19 33 -31
22z"/>
<path d="M4170 2159 c0 -5 5 -7 10 -4 6 3 10 8 10 11 0 2 -4 4 -10 4 -5 0 -10
-5 -10 -11z"/>
<path d="M4790 2140 c0 -5 7 -10 16 -10 8 0 12 5 9 10 -3 6 -10 10 -16 10 -5
0 -9 -4 -9 -10z"/>
<path d="M4930 2121 c0 -27 15 -34 31 -15 10 13 10 17 -2 25 -22 13 -29 11
-29 -10z"/>
<path d="M4611 2094 c0 -11 3 -14 6 -6 3 7 2 16 -1 19 -3 4 -6 -2 -5 -13z"/>
<path d="M5050 2105 c0 -5 5 -17 10 -25 5 -8 10 -10 10 -5 0 6 -5 17 -10 25
-5 8 -10 11 -10 5z"/>
<path d="M4475 2090 c-3 -5 -1 -10 4 -10 6 0 11 5 11 10 0 6 -2 10 -4 10 -3 0
-8 -4 -11 -10z"/>
<path d="M3895 2080 c-3 -5 -1 -10 4 -10 6 0 11 5 11 10 0 6 -2 10 -4 10 -3 0
-8 -4 -11 -10z"/>
<path d="M4787 2083 c-15 -15 -5 -39 23 -55 17 -9 30 -13 30 -8 0 6 -5 10 -11
10 -6 0 -9 6 -6 13 9 25 -19 57 -36 40z"/>
<path d="M3967 2074 c-13 -13 -7 -44 7 -44 8 0 17 4 20 9 7 11 -18 44 -27 35z"/>
<path d="M4687 2063 c-16 -27 -17 -72 -2 -87 19 -19 56 -21 73 -4 16 16 15 78
0 82 -37 12 -67 15 -71 9z"/>
<path d="M5338 2062 c-10 -2 -18 -12 -18 -23 0 -23 13 -25 30 -4 15 19 10 32
-12 27z"/>
<path d="M4070 2019 c0 -5 5 -7 10 -4 6 3 10 8 10 11 0 2 -4 4 -10 4 -5 0 -10
-5 -10 -11z"/>
<path d="M4380 2015 c0 -8 5 -15 10 -15 6 0 10 7 10 15 0 8 -4 15 -10 15 -5 0
-10 -7 -10 -15z"/>
<path d="M4560 2005 c0 -9 6 -12 15 -9 8 4 12 10 9 15 -8 14 -24 10 -24 -6z"/>
<path d="M4990 2010 c0 -5 7 -10 15 -10 8 0 15 5 15 10 0 6 -7 10 -15 10 -8 0
-15 -4 -15 -10z"/>
<path d="M4310 2000 c0 -5 5 -10 11 -10 5 0 7 5 4 10 -3 6 -8 10 -11 10 -2 0
-4 -4 -4 -10z"/>
<path d="M5128 1999 c-8 -5 -21 -23 -28 -40 -11 -26 -11 -32 1 -40 20 -12 22
-12 47 11 38 36 22 93 -20 69z"/>
<path d="M4610 1982 c0 -5 7 -13 16 -16 10 -4 14 -1 12 6 -5 15 -28 23 -28 10z"/>
<path d="M4935 1980 c3 -5 8 -10 11 -10 2 0 4 5 4 10 0 6 -5 10 -11 10 -5 0
-7 -4 -4 -10z"/>
<path d="M4145 1960 c-3 -5 -1 -10 4 -10 6 0 11 5 11 10 0 6 -2 10 -4 10 -3 0
-8 -4 -11 -10z"/>
<path d="M5305 1950 c-3 -5 -1 -10 4 -10 6 0 11 5 11 10 0 6 -2 10 -4 10 -3 0
-8 -4 -11 -10z"/>
<path d="M3970 1934 c0 -8 5 -12 10 -9 6 4 8 11 5 16 -9 14 -15 11 -15 -7z"/>
<path d="M4400 1904 c-13 -34 -13 -39 5 -54 21 -18 52 -3 64 31 9 27 8 31 -15
39 -37 15 -43 13 -54 -16z"/>
<path d="M4570 1910 c0 -19 11 -26 23 -14 8 8 -3 34 -14 34 -5 0 -9 -9 -9 -20z"/>
<path d="M4760 1901 c0 -6 5 -13 10 -16 6 -3 10 1 10 9 0 9 -4 16 -10 16 -5 0
-10 -4 -10 -9z"/>
<path d="M5256 1875 c-3 -9 1 -18 10 -22 19 -7 39 11 30 26 -10 16 -33 13 -40
-4z"/>
<path d="M4245 1870 c3 -5 8 -10 11 -10 2 0 4 5 4 10 0 6 -5 10 -11 10 -5 0
-7 -4 -4 -10z"/>
<path d="M4285 1860 c-3 -5 -1 -10 4 -10 6 0 11 5 11 10 0 6 -2 10 -4 10 -3 0
-8 -4 -11 -10z"/>
<path d="M4650 1844 c0 -8 5 -12 10 -9 6 3 10 10 10 16 0 5 -4 9 -10 9 -5 0
-10 -7 -10 -16z"/>
<path d="M4910 1840 c-15 -28 -4 -39 17 -17 13 12 14 20 6 28 -8 8 -14 5 -23
-11z"/>
<path d="M4950 1781 c0 -5 5 -13 10 -16 6 -3 10 -2 10 4 0 5 -4 13 -10 16 -5
3 -10 2 -10 -4z"/>
<path d="M4495 1750 c-3 -5 1 -10 9 -10 9 0 16 5 16 10 0 6 -4 10 -9 10 -6 0
-13 -4 -16 -10z"/>
<path d="M4580 1729 c0 -5 5 -7 10 -4 6 3 10 8 10 11 0 2 -4 4 -10 4 -5 0 -10
-5 -10 -11z"/>
<path d="M4740 1714 c0 -9 7 -14 17 -12 25 5 28 28 4 28 -12 0 -21 -6 -21 -16z"/>
</g>
</svg>
