<?xml version="1.0" standalone="no"?>
<!DOCTYPE svg PUBLIC "-//W3C//DTD SVG 20010904//EN"
 "http://www.w3.org/TR/2001/REC-SVG-20010904/DTD/svg10.dtd">
<svg version="1.0" xmlns="http://www.w3.org/2000/svg"
 width="696.000000pt" height="696.000000pt" viewBox="0 0 696.000000 696.000000"
 preserveAspectRatio="xMidYMid meet">
<metadata>
Created by potrace 1.14, written by Peter Selinger 2001-2017
</metadata>
<g transform="translate(0.000000,696.000000) scale(0.100000,-0.100000)"
fill="#000000" stroke="none">
<path d="M3225 6414 c-16 -26 -39 -64 -50 -83 -11 -20 -23 -38 -26 -41 -3 -3
-36 -59 -74 -125 -38 -66 -85 -147 -105 -180 -20 -33 -48 -80 -62 -105 -14
-25 -55 -96 -92 -158 -36 -62 -77 -132 -90 -155 -13 -23 -32 -56 -42 -74 -18
-30 -198 -339 -219 -375 -79 -137 -275 -474 -429 -737 -36 -62 -66 -115 -66
-116 0 -1 -24 -43 -54 -92 -29 -49 -64 -109 -78 -133 -42 -75 -482 -832 -558
-960 -52 -88 -562 -966 -587 -1010 -11 -19 -35 -60 -53 -90 -18 -30 -41 -70
-52 -88 -10 -18 -90 -155 -177 -305 -314 -539 -390 -672 -393 -686 -3 -14 -25
-14 1797 -5 2263 11 2744 13 3143 15 232 1 422 3 422 6 0 2 -46 75 -103 161
-140 214 -417 638 -502 771 -38 59 -160 246 -270 415 -110 168 -225 344 -255
391 -104 161 -365 560 -466 715 -102 156 -366 562 -498 765 -39 60 -103 159
-143 219 -68 104 -71 112 -58 133 8 12 27 44 42 70 14 26 43 75 62 108 20 33
42 71 49 85 20 38 35 56 56 63 13 5 17 14 13 30 -9 33 41 -29 102 -128 48 -77
95 -133 109 -127 4 1 7 -6 7 -15 0 -10 11 -29 25 -43 14 -14 34 -41 44 -60 11
-19 22 -37 26 -40 3 -3 20 -28 38 -57 17 -28 40 -62 51 -75 11 -13 21 -27 22
-33 1 -11 36 -63 56 -83 7 -7 13 -20 13 -28 0 -8 5 -14 10 -14 6 0 10 -6 10
-13 0 -8 8 -23 18 -35 25 -29 96 -145 98 -160 1 -7 10 -24 19 -38 9 -13 14
-28 11 -33 -3 -4 10 -30 29 -57 19 -27 35 -55 35 -61 0 -7 6 -12 13 -11 6 2
11 -3 9 -10 -1 -7 15 -42 35 -78 21 -36 46 -80 55 -98 18 -35 81 -89 92 -78 4
3 4 -1 1 -10 -6 -16 16 -55 56 -100 9 -10 22 -31 30 -46 8 -15 22 -36 32 -47
10 -11 23 -29 28 -40 8 -16 6 -15 -7 3 -24 32 -37 27 -19 -8 24 -46 142 -190
149 -182 4 3 4 -1 0 -11 -3 -10 -1 -17 6 -17 6 0 9 -4 5 -9 -3 -6 13 -28 35
-50 22 -22 40 -43 40 -48 0 -13 140 -227 151 -231 5 -2 16 -17 24 -33 9 -16
19 -28 24 -26 13 3 53 -46 119 -143 31 -47 66 -96 78 -109 12 -13 28 -35 36
-50 19 -37 130 -205 141 -212 5 -4 14 -16 20 -27 7 -11 39 -59 72 -107 33 -47
65 -94 70 -103 6 -9 22 -33 38 -53 15 -20 27 -40 27 -44 0 -3 15 -26 33 -50
17 -23 38 -51 44 -61 11 -17 12 -16 8 10 -2 16 -13 39 -25 51 -11 12 -20 24
-20 27 0 4 -33 54 -72 113 -40 58 -84 126 -98 150 -14 24 -34 55 -45 68 -33
39 -65 86 -65 96 0 5 -3 11 -8 13 -6 2 -119 169 -185 272 -7 10 -23 33 -37 49
-20 24 -21 29 -6 20 11 -6 36 -35 56 -64 20 -30 42 -53 49 -51 7 1 10 -2 5 -9
-5 -9 -2 -10 10 -6 9 4 15 3 12 -1 -3 -5 4 -21 15 -38 19 -27 20 -28 14 -4 -5
17 3 11 23 -20 16 -25 39 -54 50 -66 11 -11 27 -34 36 -51 8 -17 24 -41 35
-54 53 -62 71 -88 71 -98 0 -6 5 -11 10 -11 6 0 10 -7 10 -15 0 -8 4 -15 9
-15 4 0 20 -17 33 -38 14 -21 53 -69 87 -107 57 -66 171 -235 171 -256 0 -5 4
-9 8 -9 5 0 18 -18 31 -40 12 -22 27 -45 34 -52 7 -7 32 -39 56 -70 24 -32 45
-58 46 -58 2 0 -4 15 -13 33 -16 32 -22 50 -24 75 -1 6 -4 12 -8 12 -3 0 -6
10 -7 23 -2 21 -2 21 9 2 6 -11 18 -27 27 -36 9 -9 26 -28 39 -43 13 -16 26
-25 29 -22 4 3 -1 14 -10 24 -10 10 -17 22 -17 26 0 9 95 -112 170 -214 29
-41 66 -88 82 -104 15 -15 28 -35 28 -43 0 -9 6 -13 15 -9 8 3 21 -4 30 -17
20 -28 19 -14 -1 26 l-17 32 22 -19 c36 -32 24 -2 -31 78 -29 42 -58 86 -64
96 -6 11 -18 28 -26 37 -18 20 -78 120 -78 130 0 3 8 0 18 -7 9 -7 5 -1 -10
13 -16 14 -28 31 -28 37 0 7 -9 25 -21 41 -12 17 -16 29 -8 29 6 0 1 14 -13
32 -13 18 -40 60 -58 93 -19 33 -36 62 -39 65 -4 3 -62 88 -130 190 -68 102
-130 192 -138 201 -7 8 -13 22 -13 30 0 9 -7 24 -16 35 -14 18 -14 18 -4 -6
11 -23 9 -22 -14 5 -14 17 -25 35 -25 40 0 6 4 2 10 -8 7 -12 15 -15 22 -9 21
16 48 9 65 -17 9 -14 19 -28 22 -31 3 -3 18 -25 35 -50 16 -25 48 -70 71 -100
23 -30 72 -100 110 -155 109 -159 217 -305 222 -300 3 2 -6 19 -20 37 -37 50
-72 114 -54 99 8 -7 18 -21 21 -32 4 -11 11 -17 16 -14 5 4 9 2 9 -3 0 -5 29
-52 65 -105 36 -53 65 -100 65 -106 0 -5 3 -11 8 -13 9 -4 144 -219 140 -224
-2 -2 -35 44 -73 102 -39 58 -77 115 -85 128 -8 12 -28 43 -45 69 -16 26 -33
47 -37 47 -9 0 193 -315 227 -354 14 -16 25 -35 25 -41 0 -7 7 -16 16 -19 13
-5 14 -3 7 6 -6 7 -13 24 -16 38 -5 22 -4 23 6 6 55 -86 70 -105 80 -99 7 3 9
3 5 -1 -3 -4 7 -20 23 -35 32 -31 79 -97 79 -111 0 -6 4 -10 9 -10 5 0 32 -30
60 -67 114 -154 179 -234 157 -196 -9 16 -16 53 -11 53 3 0 16 -17 29 -39 38
-60 92 -115 105 -106 8 4 14 -1 18 -14 3 -12 9 -21 13 -21 4 0 19 -17 33 -37
25 -36 27 -36 27 -13 l1 25 20 -28 c37 -49 39 -18 3 46 -20 34 -38 70 -41 80
-3 9 -9 17 -14 17 -5 0 -9 5 -9 11 0 5 6 7 12 2 7 -4 -4 16 -25 45 -20 29 -37
54 -37 57 0 2 -18 33 -40 67 -22 35 -40 71 -40 80 0 9 -4 19 -9 22 -14 9 -116
187 -156 274 -21 45 -42 82 -47 82 -4 0 -8 5 -8 11 0 6 -13 30 -30 54 -16 24
-30 47 -30 52 0 7 -69 104 -99 139 -5 6 -11 17 -13 25 -1 8 -60 100 -129 204
-69 105 -145 222 -168 260 -23 39 -65 106 -92 149 -27 44 -49 84 -48 90 3 24
-2 36 -12 36 -8 0 -7 -6 2 -17 13 -16 12 -17 -3 -4 -10 7 -15 18 -12 23 3 5
-1 17 -9 26 -8 9 -23 33 -32 52 -10 19 -21 37 -25 40 -4 3 -19 28 -35 55 -15
28 -36 62 -47 78 -11 15 -16 27 -13 27 4 0 0 12 -9 27 l-17 28 20 -25 c12 -14
25 -30 30 -36 15 -19 104 -147 148 -214 25 -38 43 -57 43 -46 0 10 -14 35 -30
55 -37 43 -37 44 -74 101 -16 25 -42 64 -57 88 -16 23 -29 46 -29 50 0 4 -12
21 -28 37 -15 17 -35 46 -46 65 -10 20 -36 56 -58 80 -22 25 -36 38 -32 30 7
-13 5 -13 -9 -1 -9 7 -17 20 -17 27 0 8 -3 14 -8 14 -4 0 -17 21 -30 48 -12
26 -40 72 -62 102 -21 30 -36 58 -34 62 3 5 -1 8 -9 8 -8 0 -22 15 -31 33 -19
35 -34 58 -128 190 -35 48 -70 100 -78 115 -8 15 -25 44 -38 65 -12 21 -22 45
-22 53 0 8 -4 14 -9 14 -14 0 -101 140 -95 154 3 7 -6 21 -18 32 l-23 19 19
-23 c11 -12 17 -24 15 -26 -2 -2 -17 14 -34 37 -16 23 -22 36 -12 28 27 -21
20 -5 -14 34 -18 20 -32 46 -33 58 -1 12 -7 21 -14 19 -10 -2 -10 3 -3 16 7
13 6 26 -3 43 -30 58 -73 128 -107 175 -21 29 -36 54 -33 56 2 3 -2 11 -11 18
-8 7 -15 20 -15 28 0 20 21 -7 66 -86 18 -31 34 -50 38 -44 4 6 -7 30 -24 53
-16 23 -30 45 -30 49 0 10 -107 169 -131 196 -11 11 -16 24 -12 27 3 4 2 7 -4
7 -6 0 -16 14 -23 30 -7 17 -16 30 -20 30 -3 0 -13 12 -20 28 -8 15 -23 39
-33 55 -10 15 -14 27 -8 27 6 0 11 -5 11 -10 0 -6 28 -38 62 -73 65 -66 66
-64 6 23 -65 94 -70 100 -82 93 -6 -3 -8 -3 -4 2 7 8 -50 95 -62 95 -6 0 -33
47 -34 62 -1 3 -14 20 -29 37 -15 18 -25 36 -22 40 3 5 1 11 -3 13 -11 4 -125
158 -117 158 3 0 -3 10 -15 22 -11 12 -20 30 -20 39 0 10 -4 20 -9 23 -8 5
-68 102 -96 157 -5 10 -13 19 -17 19 -4 0 -5 6 -2 14 3 8 1 17 -5 21 -6 3 -11
1 -11 -6 0 -8 -3 -9 -13 0 -8 6 -16 9 -19 6 -3 -3 -11 1 -18 10 -8 10 -9 15
-1 15 6 0 11 -5 11 -12 0 -6 2 -9 5 -6 3 3 -7 28 -24 56 -16 28 -26 53 -23 57
4 4 0 12 -10 19 -9 6 -25 27 -35 46 -11 19 -30 40 -43 47 -13 6 -43 42 -66 80
-24 37 -47 73 -51 78 -5 6 -78 105 -162 220 -229 313 -334 455 -351 477 -14
18 -16 16 -45 -28z m236 -1404 c6 0 7 4 4 10 -3 5 0 7 7 5 15 -6 98 -128 98
-144 0 -14 -17 -14 -25 -1 -5 8 -11 8 -20 0 -15 -13 -20 -7 -66 78 -29 53 -49
76 -49 56 0 -8 70 -115 92 -140 10 -11 20 -31 23 -43 5 -25 68 -129 124 -206
38 -51 64 -94 38 -63 -8 10 -16 15 -19 12 -7 -6 -54 54 -88 111 -14 22 -28 45
-32 50 -29 35 -91 143 -93 160 -3 23 -45 98 -52 91 -3 -2 1 -15 8 -28 11 -20
11 -22 -3 -10 -18 15 -32 56 -15 45 6 -4 8 0 4 10 -3 10 -3 17 2 17 5 0 12 10
15 23 6 22 7 22 22 -5 8 -16 19 -28 25 -28z m-56 -138 c22 -37 45 -79 52 -94
7 -16 17 -28 22 -28 6 0 13 -11 17 -24 3 -13 17 -34 30 -47 23 -22 32 -49 16
-49 -8 0 -105 156 -110 178 -2 6 -7 12 -10 12 -4 0 -14 15 -21 33 -8 17 -21
37 -30 43 -15 11 -25 44 -13 44 4 0 25 -31 47 -68z m36 41 c13 -16 12 -17 -3
-4 -17 13 -22 21 -14 21 2 0 10 -8 17 -17z m10 -220 c62 -93 67 -102 42 -80
-12 10 -45 58 -74 105 -29 48 -64 102 -76 121 -13 19 -23 41 -23 50 0 9 19
-16 43 -56 23 -39 63 -102 88 -140z m259 -22 c0 -11 7 -27 16 -36 9 -9 14 -18
11 -21 -5 -6 -68 80 -93 127 l-17 33 42 -41 c22 -23 41 -51 41 -62z m802 -101
c5 0 8 -5 6 -12 -3 -7 8 -23 24 -36 15 -13 28 -28 28 -33 0 -10 21 -44 89
-141 21 -32 36 -57 33 -57 -4 1 -15 1 -26 0 -15 -1 -16 -4 -6 -16 7 -9 11 -18
8 -20 -5 -6 -50 59 -61 88 -3 9 -11 17 -17 17 -5 0 -10 6 -10 14 0 8 -4 16 -9
18 -9 3 -101 172 -101 184 0 4 7 3 16 0 9 -3 20 -6 26 -6z m-881 -70 c18 -27
36 -50 41 -50 4 0 8 -8 8 -17 -1 -14 -5 -12 -23 9 -25 31 -70 108 -63 108 3 0
19 -22 37 -50z m109 10 c6 -11 8 -20 6 -20 -3 0 -10 9 -16 20 -6 11 -8 20 -6
20 3 0 10 -9 16 -20z m29 -125 c3 -6 -6 3 -21 20 -15 16 -28 34 -28 39 0 8 36
-36 49 -59z m-65 10 c3 -8 1 -15 -3 -15 -5 0 -11 7 -15 15 -3 8 -1 15 3 15 5
0 11 -7 15 -15z m146 -49 c0 -11 0 -11 -29 34 l-23 35 26 -30 c14 -16 26 -34
26 -39z m-120 14 c12 -7 12 -12 2 -22 -11 -11 -13 -9 -11 8 0 4 -5 11 -13 15
-7 5 -8 9 -3 9 6 0 17 -5 25 -10z m98 -135 c-3 -3 -9 2 -12 12 -6 14 -5 15 5
6 7 -7 10 -15 7 -18z m872 -15 c12 -16 17 -30 11 -30 -5 0 -16 14 -25 30 -8
17 -13 30 -11 30 2 0 13 -13 25 -30z m-849 -17 c13 -16 12 -17 -3 -4 -17 13
-22 21 -14 21 2 0 10 -8 17 -17z m-1210 -630 c68 -107 310 -479 456 -701 73
-112 133 -205 133 -208 0 -3 5 -10 11 -17 5 -7 29 -41 52 -77 102 -158 387
-594 449 -689 38 -57 66 -106 64 -109 -5 -4 -709 -9 -1716 -12 -624 -1 -604
-2 -592 13 5 6 80 134 167 282 86 149 172 295 189 325 31 52 74 127 140 243
16 29 33 54 38 55 4 2 8 8 8 14 0 6 22 47 49 92 26 44 114 194 193 331 80 138
155 266 167 285 11 19 24 42 28 50 3 8 21 39 40 68 18 29 33 55 33 58 0 7 40
64 44 64 2 0 23 -30 47 -67z m1957 -573 c17 -27 10 -25 -19 6 -13 14 -17 23
-9 19 9 -3 21 -14 28 -25z m477 -30 c3 -5 1 -10 -4 -10 -6 0 -11 5 -11 10 0 6
2 10 4 10 3 0 8 -4 11 -10z m56 -63 c6 -12 24 -32 40 -45 16 -13 29 -27 29
-32 0 -5 23 -39 50 -76 28 -37 50 -70 50 -75 0 -4 11 -20 24 -34 13 -14 31
-41 40 -59 8 -17 26 -44 40 -59 14 -15 23 -27 20 -27 -3 0 0 -9 7 -21 45 -85
-135 142 -219 274 -18 29 -38 57 -45 62 -24 20 -78 94 -82 115 -3 17 -1 19 15
10 11 -6 25 -20 31 -33z m-446 -23 c25 -28 42 -52 67 -94 15 -25 34 -54 42
-65 43 -53 128 -203 98 -170 -5 6 -44 62 -86 125 -42 63 -81 120 -86 127 -6 7
-10 16 -10 21 0 4 -8 17 -18 28 -26 29 -52 67 -52 78 0 6 8 -1 17 -14 9 -14
22 -30 28 -36z m815 -579 c6 -4 10 -11 10 -17 0 -7 -13 1 -30 17 -16 16 -30
32 -30 36 0 5 -13 28 -30 52 -50 75 -33 66 20 -11 28 -39 55 -74 60 -77z m25
62 c10 -17 13 -27 6 -23 -15 10 -14 -2 2 -18 39 -40 119 -165 96 -151 -6 4
-31 37 -56 74 -24 36 -62 91 -83 121 -26 38 -35 57 -27 62 12 8 31 -12 62 -65z"/>
<path d="M3465 5000 c-3 -5 -1 -10 4 -10 6 0 11 5 11 10 0 6 -2 10 -4 10 -3 0
-8 -4 -11 -10z"/>
<path d="M5470 2411 c0 -6 4 -13 10 -16 6 -3 7 1 4 9 -7 18 -14 21 -14 7z"/>
<path d="M5840 1416 c0 -2 8 -10 18 -17 15 -13 16 -12 3 4 -13 16 -21 21 -21
13z"/>
<path d="M6296 1148 c24 -42 177 -268 181 -268 6 0 -32 63 -77 125 -20 28 -51
74 -69 103 -18 28 -35 52 -38 52 -2 0 -1 -6 3 -12z"/>
<path d="M6500 840 c12 -16 24 -30 26 -30 3 0 -4 14 -16 30 -12 17 -24 30 -26
30 -3 0 4 -13 16 -30z"/>
</g>
</svg>
