<?xml version="1.0" standalone="no"?>
<!DOCTYPE svg PUBLIC "-//W3C//DTD SVG 20010904//EN"
 "http://www.w3.org/TR/2001/REC-SVG-20010904/DTD/svg10.dtd">
<svg version="1.0" xmlns="http://www.w3.org/2000/svg"
 width="400.000000pt" height="400.000000pt" viewBox="0 0 400.000000 400.000000"
 preserveAspectRatio="xMidYMid meet">
<metadata>
Created by potrace 1.14, written by Peter Selinger 2001-2017
</metadata>
<g transform="translate(0.000000,400.000000) scale(0.100000,-0.100000)"
fill="#000000" stroke="none">
<path d="M1864 3464 c-10 -14 -24 -39 -33 -55 -12 -23 -195 -337 -256 -440 -5
-9 -32 -54 -58 -100 -26 -46 -52 -91 -57 -99 -27 -45 -90 -152 -90 -155 0 -2
-28 -50 -61 -107 -34 -56 -71 -119 -82 -138 -24 -43 -121 -211 -487 -840 -155
-267 -292 -503 -305 -525 -12 -22 -46 -82 -76 -133 -30 -51 -64 -111 -77 -132
l-22 -40 797 5 c439 2 1042 4 1341 5 312 1 542 6 542 11 0 5 -42 73 -93 151
-51 79 -129 198 -172 266 -44 67 -110 169 -147 225 -37 56 -73 112 -80 124
-16 27 -96 150 -407 628 l-248 380 51 85 c27 47 56 91 63 98 7 7 13 19 13 25
0 7 4 6 10 -3 13 -20 12 -33 -2 -24 -7 4 -8 3 -4 -5 4 -6 12 -9 17 -6 5 4 9 1
9 -4 0 -6 9 -20 21 -32 11 -11 18 -27 15 -35 -3 -7 -1 -13 3 -11 9 2 61 -67
61 -81 1 -4 14 -23 30 -42 17 -19 30 -40 30 -47 0 -7 5 -13 10 -13 6 0 10 -4
10 -9 0 -5 22 -43 49 -83 26 -40 52 -84 56 -98 4 -14 17 -38 29 -55 11 -16 21
-36 23 -44 1 -8 5 -17 10 -20 4 -3 17 -23 27 -43 11 -21 25 -38 33 -38 7 0 13
-7 13 -15 0 -8 5 -15 12 -15 6 0 8 -3 5 -6 -6 -6 5 -22 53 -81 14 -17 12 -26
-2 -17 -7 5 -2 -5 10 -21 13 -17 35 -48 49 -70 15 -22 32 -44 38 -50 6 -5 23
-30 37 -55 32 -54 55 -85 86 -113 13 -12 33 -38 45 -57 12 -19 32 -46 44 -60
13 -14 23 -29 23 -34 0 -4 21 -38 47 -75 25 -36 73 -105 106 -153 32 -49 64
-88 70 -88 8 0 8 3 2 8 -14 10 -245 357 -245 368 0 14 76 -71 105 -116 14 -22
32 -48 40 -58 75 -93 105 -132 170 -229 42 -62 78 -113 80 -113 3 0 -1 15 -9
33 -11 28 -11 34 0 34 7 0 12 -3 11 -6 -1 -3 6 -17 16 -31 9 -13 17 -20 17
-15 0 4 20 -18 45 -51 25 -32 52 -67 60 -77 8 -9 15 -21 15 -26 0 -5 8 -8 18
-6 23 4 19 15 -38 101 -44 65 -71 115 -74 135 -1 4 -41 69 -91 144 -49 75 -94
144 -100 153 -5 9 -18 23 -27 30 -10 7 -18 18 -18 24 0 7 6 3 14 -8 18 -23 16
0 -2 34 -19 34 -5 26 20 -12 13 -19 50 -72 84 -118 33 -46 63 -91 67 -101 4
-10 12 -15 17 -12 6 4 9 1 8 -7 -2 -7 2 -12 8 -11 7 1 11 -5 10 -15 0 -9 5
-16 12 -14 8 1 11 -2 8 -7 -3 -5 6 -16 20 -26 15 -9 23 -22 20 -31 -3 -7 0
-13 6 -11 6 1 13 -4 16 -12 3 -9 0 -11 -8 -6 -9 6 -11 4 -6 -4 5 -7 11 -10 14
-7 6 6 29 -23 30 -38 0 -5 4 -12 9 -15 4 -3 15 -15 23 -26 l15 -20 -25 20
c-21 18 -21 16 6 -20 16 -22 40 -50 53 -61 13 -12 20 -27 17 -33 -4 -6 -4 -10
1 -9 11 4 51 -36 83 -82 13 -19 30 -41 37 -48 7 -8 25 -29 40 -48 14 -19 28
-32 31 -29 3 3 13 -5 21 -18 20 -29 91 -92 91 -81 0 5 5 2 10 -6 23 -35 7 10
-22 65 -17 33 -42 80 -55 104 -12 24 -27 48 -32 55 -5 6 -29 49 -53 96 -39 73
-175 291 -309 494 -21 33 -39 63 -39 67 0 4 -23 44 -50 88 -46 75 -57 106 -23
64 8 -11 11 -12 7 -3 -14 26 -76 114 -96 135 -27 29 -78 108 -78 123 0 6 -4
12 -9 12 -4 0 -30 34 -56 75 -26 41 -51 75 -56 75 -5 0 -9 6 -9 14 0 12 -48
94 -77 131 -4 6 -19 33 -33 60 -14 28 -28 52 -33 53 -4 2 -5 7 -2 12 5 9 -22
67 -36 75 -5 4 -9 11 -9 16 0 6 5 7 12 3 13 -8 13 -8 -61 106 -30 47 -58 87
-63 88 -4 2 -8 8 -8 13 0 6 9 5 23 -1 20 -10 20 -10 5 3 -10 8 -18 19 -18 24
0 6 -7 17 -16 24 -18 15 -131 183 -189 281 -22 37 -44 68 -50 68 -5 1 -21 24
-34 52 -13 28 -35 62 -50 77 -14 14 -51 62 -81 106 -30 44 -59 85 -65 91 -5 6
-44 59 -85 117 -41 58 -78 106 -82 107 -4 0 -15 -12 -24 -26z m123 -691 c8
-10 12 -12 8 -5 -14 27 5 10 26 -24 18 -30 19 -38 8 -45 -12 -7 -10 -16 11
-54 14 -25 35 -57 47 -72 26 -30 28 -34 11 -27 -15 5 -88 107 -88 122 0 5 -7
15 -16 23 -8 7 -13 21 -11 31 3 11 1 15 -5 12 -6 -4 -8 -1 -6 7 3 8 1 22 -4
32 -5 9 -6 17 -2 17 4 0 13 -8 21 -17z m-22 -13 c3 -5 1 -10 -4 -10 -6 0 -11
5 -11 10 0 6 2 10 4 10 3 0 8 -4 11 -10z m-11 -46 c5 -14 4 -15 -9 -4 -17 14
-19 20 -6 20 5 0 12 -7 15 -16z m36 -60 c0 -3 -7 -1 -15 6 -8 7 -15 17 -15 22
0 5 7 3 15 -6 8 -8 15 -18 15 -22z m124 -54 c8 -16 13 -30 11 -30 -2 0 -13 14
-25 30 -12 17 -17 30 -11 30 5 0 16 -13 25 -30z m-74 -22 c0 -5 -7 -3 -15 6
-8 8 -15 18 -15 22 0 3 7 1 15 -6 8 -7 15 -17 15 -22z m30 -38 c0 -5 -5 -10
-11 -10 -5 0 -7 5 -4 10 3 6 8 10 11 10 2 0 4 -4 4 -10z m461 -12 c10 -13 18
-26 19 -31 0 -4 23 -39 51 -78 28 -38 49 -72 46 -75 -2 -3 -15 12 -27 33 -13
21 -25 33 -27 25 -5 -13 -35 26 -77 103 -27 47 -18 61 15 23z m-402 -98 c-1
-13 -1 -13 -6 0 -3 8 -19 33 -35 55 l-30 40 36 -40 c20 -22 35 -47 35 -55z
m-347 -703 c6 -12 14 -24 17 -27 4 -3 22 -30 41 -60 19 -30 38 -56 42 -58 5
-2 8 -8 8 -12 0 -5 61 -102 135 -215 74 -113 135 -209 135 -213 0 -4 -259 -8
-576 -9 -492 -1 -575 1 -570 13 3 8 62 112 132 232 70 119 135 233 146 252 11
19 74 128 141 242 l121 207 108 -165 c59 -91 113 -175 120 -187z m1098 -84 c6
-7 10 -16 10 -20 1 -4 14 -24 30 -43 17 -19 30 -39 30 -44 0 -5 7 -18 17 -28
9 -10 12 -18 6 -18 -9 0 -30 28 -100 130 -9 14 -27 36 -39 50 -12 14 -27 36
-34 50 -10 22 40 -26 80 -77z m-220 -27 c29 -43 47 -76 41 -72 -14 9 -89 119
-98 143 -9 26 -2 17 57 -71z m70 -106 c6 -11 8 -20 6 -20 -3 0 -10 9 -16 20
-6 11 -8 20 -6 20 3 0 10 -9 16 -20z m285 -61 c18 -33 15 -48 -4 -25 -12 14
-24 56 -16 56 3 0 12 -14 20 -31z m43 -70 c19 -30 11 -32 -11 -3 -10 13 -14
24 -10 24 5 0 14 -9 21 -21z m313 -466 c13 -16 12 -17 -3 -4 -10 7 -18 15 -18
17 0 8 8 3 21 -13z"/>
<path d="M3155 1520 c3 -5 8 -10 11 -10 2 0 4 5 4 10 0 6 -5 10 -11 10 -5 0
-7 -4 -4 -10z"/>
<path d="M3201 1453 c7 -12 15 -20 18 -17 3 2 -3 12 -13 22 -17 16 -18 16 -5
-5z"/>
</g>
</svg>
